<svg xmlns="http://www.w3.org/2000/svg" xmlns:xlink="http://www.w3.org/1999/xlink" width="1080" zoomAndPan="magnify" viewBox="0 0 810 1439.999935" height="1920" preserveAspectRatio="xMidYMid meet" version="1.0"><defs><clipPath id="8ca5e4c5ce"><path d="M 444 778 L 510 778 L 510 844 L 444 844 Z M 444 778 " clip-rule="nonzero"/></clipPath><clipPath id="1a090d422a"><path d="M 414.554688 787.972656 L 499.601562 748.523438 L 539.050781 833.566406 L 454.007812 873.015625 Z M 414.554688 787.972656 " clip-rule="nonzero"/></clipPath><clipPath id="bae9983451"><path d="M 414.554688 787.972656 L 499.601562 748.523438 L 539.050781 833.566406 L 454.007812 873.015625 Z M 414.554688 787.972656 " clip-rule="nonzero"/></clipPath><clipPath id="b96bfca749"><path d="M 414.554688 787.972656 L 499.601562 748.523438 L 539.050781 833.566406 L 454.007812 873.015625 Z M 414.554688 787.972656 " clip-rule="nonzero"/></clipPath><clipPath id="f5254d8f3f"><path d="M 475 932 L 541 932 L 541 998 L 475 998 Z M 475 932 " clip-rule="nonzero"/></clipPath><clipPath id="3fa931a3df"><path d="M 446.027344 941.265625 L 531.457031 902.652344 L 570.070312 988.082031 L 484.640625 1026.695312 Z M 446.027344 941.265625 " clip-rule="nonzero"/></clipPath><clipPath id="2115b19e13"><path d="M 446.027344 941.265625 L 531.457031 902.652344 L 570.070312 988.082031 L 484.640625 1026.695312 Z M 446.027344 941.265625 " clip-rule="nonzero"/></clipPath><clipPath id="da34d18e36"><path d="M 446.027344 941.265625 L 531.457031 902.652344 L 570.070312 988.082031 L 484.640625 1026.695312 Z M 446.027344 941.265625 " clip-rule="nonzero"/></clipPath><clipPath id="fbf866bea9"><path d="M 274 982 L 340 982 L 340 1048 L 274 1048 Z M 274 982 " clip-rule="nonzero"/></clipPath><clipPath id="80a2dbb990"><path d="M 282.328125 953.105469 L 368.503906 990.023438 L 331.585938 1076.199219 L 245.410156 1039.28125 Z M 282.328125 953.105469 " clip-rule="nonzero"/></clipPath><clipPath id="83481ff0db"><path d="M 282.328125 953.105469 L 368.503906 990.023438 L 331.585938 1076.199219 L 245.410156 1039.28125 Z M 282.328125 953.105469 " clip-rule="nonzero"/></clipPath><clipPath id="f2b9e4bf15"><path d="M 282.328125 953.105469 L 368.503906 990.023438 L 331.585938 1076.199219 L 245.410156 1039.28125 Z M 282.328125 953.105469 " clip-rule="nonzero"/></clipPath><clipPath id="4852ec5a88"><path d="M 114 902 L 181 902 L 181 969 L 114 969 Z M 114 902 " clip-rule="nonzero"/></clipPath><clipPath id="56bab3631a"><path d="M 125.261719 873.242188 L 209.867188 913.621094 L 169.484375 998.230469 L 84.878906 957.847656 Z M 125.261719 873.242188 " clip-rule="nonzero"/></clipPath><clipPath id="2b4cdabe3a"><path d="M 125.261719 873.242188 L 209.867188 913.621094 L 169.484375 998.230469 L 84.878906 957.847656 Z M 125.261719 873.242188 " clip-rule="nonzero"/></clipPath><clipPath id="8f84f105b7"><path d="M 125.261719 873.242188 L 209.867188 913.621094 L 169.484375 998.230469 L 84.878906 957.847656 Z M 125.261719 873.242188 " clip-rule="nonzero"/></clipPath><clipPath id="ae4bd32738"><path d="M 78 774 L 146 774 L 146 842 L 78 842 Z M 78 774 " clip-rule="nonzero"/></clipPath><clipPath id="3896bc780e"><path d="M 48.65625 789.171875 L 131.289062 744.890625 L 175.570312 827.523438 L 92.9375 871.804688 Z M 48.65625 789.171875 " clip-rule="nonzero"/></clipPath><clipPath id="c892c04929"><path d="M 48.65625 789.171875 L 131.289062 744.890625 L 175.570312 827.523438 L 92.9375 871.804688 Z M 48.65625 789.171875 " clip-rule="nonzero"/></clipPath><clipPath id="2352c2b794"><path d="M 48.65625 789.171875 L 131.289062 744.890625 L 175.570312 827.523438 L 92.9375 871.804688 Z M 48.65625 789.171875 " clip-rule="nonzero"/></clipPath><clipPath id="f692fda3d2"><path d="M 407 1263 L 474 1263 L 474 1330 L 407 1330 Z M 407 1263 " clip-rule="nonzero"/></clipPath><clipPath id="74fcebd9f5"><path d="M 378.410156 1273.753906 L 463.4375 1234.261719 L 502.929688 1319.285156 L 417.902344 1358.777344 Z M 378.410156 1273.753906 " clip-rule="nonzero"/></clipPath><clipPath id="81a340146e"><path d="M 378.410156 1273.753906 L 463.4375 1234.261719 L 502.929688 1319.285156 L 417.902344 1358.777344 Z M 378.410156 1273.753906 " clip-rule="nonzero"/></clipPath><clipPath id="f29e908986"><path d="M 378.410156 1273.753906 L 463.4375 1234.261719 L 502.929688 1319.285156 L 417.902344 1358.777344 Z M 378.410156 1273.753906 " clip-rule="nonzero"/></clipPath><clipPath id="15078c843e"><path d="M 241 1184 L 310 1184 L 310 1254 L 241 1254 Z M 241 1184 " clip-rule="nonzero"/></clipPath><clipPath id="714e4a4ca9"><path d="M 263.570312 1153.5 L 340.660156 1206.847656 L 287.316406 1283.9375 L 210.222656 1230.589844 Z M 263.570312 1153.5 " clip-rule="nonzero"/></clipPath><clipPath id="84829461ab"><path d="M 263.570312 1153.5 L 340.660156 1206.847656 L 287.316406 1283.9375 L 210.222656 1230.589844 Z M 263.570312 1153.5 " clip-rule="nonzero"/></clipPath><clipPath id="44b4841851"><path d="M 263.570312 1153.5 L 340.660156 1206.847656 L 287.316406 1283.9375 L 210.222656 1230.589844 Z M 263.570312 1153.5 " clip-rule="nonzero"/></clipPath><clipPath id="01e6baa690"><path d="M 602 1090 L 671 1090 L 671 1159 L 602 1159 Z M 602 1090 " clip-rule="nonzero"/></clipPath><clipPath id="517e82bd71"><path d="M 572.105469 1109.890625 L 651.539062 1060.101562 L 701.328125 1139.539062 L 621.894531 1189.328125 Z M 572.105469 1109.890625 " clip-rule="nonzero"/></clipPath><clipPath id="17036e67e9"><path d="M 572.105469 1109.890625 L 651.539062 1060.101562 L 701.328125 1139.539062 L 621.894531 1189.328125 Z M 572.105469 1109.890625 " clip-rule="nonzero"/></clipPath><clipPath id="15ace83783"><path d="M 572.105469 1109.890625 L 651.539062 1060.101562 L 701.328125 1139.539062 L 621.894531 1189.328125 Z M 572.105469 1109.890625 " clip-rule="nonzero"/></clipPath><clipPath id="6aa36a8904"><path d="M 273 791 L 340 791 L 340 859 L 273 859 Z M 273 791 " clip-rule="nonzero"/></clipPath><clipPath id="e09b0e6937"><path d="M 242.957031 806.105469 L 325.367188 761.410156 L 370.0625 843.816406 L 287.65625 888.515625 Z M 242.957031 806.105469 " clip-rule="nonzero"/></clipPath><clipPath id="c1c3290774"><path d="M 242.957031 806.105469 L 325.367188 761.410156 L 370.0625 843.816406 L 287.65625 888.515625 Z M 242.957031 806.105469 " clip-rule="nonzero"/></clipPath><clipPath id="d076e6d0a9"><path d="M 242.957031 806.105469 L 325.367188 761.410156 L 370.0625 843.816406 L 287.65625 888.515625 Z M 242.957031 806.105469 " clip-rule="nonzero"/></clipPath><clipPath id="02cac4c8b7"><path d="M 640 948 L 706 948 L 706 1015 L 640 1015 Z M 640 948 " clip-rule="nonzero"/></clipPath><clipPath id="a38a119c6e"><path d="M 610.835938 958.203125 L 696.09375 919.210938 L 735.085938 1004.464844 L 649.828125 1043.460938 Z M 610.835938 958.203125 " clip-rule="nonzero"/></clipPath><clipPath id="e828b96d1d"><path d="M 610.835938 958.203125 L 696.09375 919.210938 L 735.085938 1004.464844 L 649.828125 1043.460938 Z M 610.835938 958.203125 " clip-rule="nonzero"/></clipPath><clipPath id="fe2de95e2d"><path d="M 610.835938 958.203125 L 696.09375 919.210938 L 735.085938 1004.464844 L 649.828125 1043.460938 Z M 610.835938 958.203125 " clip-rule="nonzero"/></clipPath><clipPath id="6ba471c6a3"><path d="M 656 777 L 729 777 L 729 849 L 656 849 Z M 656 777 " clip-rule="nonzero"/></clipPath><clipPath id="07e01c2e70"><path d="M 682.488281 744.777344 L 760.894531 802.730469 L 702.941406 881.136719 L 624.535156 823.183594 Z M 682.488281 744.777344 " clip-rule="nonzero"/></clipPath><clipPath id="1d7f693659"><path d="M 682.488281 744.777344 L 760.894531 802.730469 L 702.941406 881.136719 L 624.535156 823.183594 Z M 682.488281 744.777344 " clip-rule="nonzero"/></clipPath><clipPath id="4994c2535d"><path d="M 682.488281 744.777344 L 760.894531 802.730469 L 702.941406 881.136719 L 624.535156 823.183594 Z M 682.488281 744.777344 " clip-rule="nonzero"/></clipPath><clipPath id="74d2e14b07"><path d="M 438 1088 L 502 1088 L 502 1151 L 438 1151 Z M 438 1088 " clip-rule="nonzero"/></clipPath><clipPath id="c56d3bce93"><path d="M 410.734375 1090.417969 L 499.433594 1060.058594 L 529.792969 1148.757812 L 441.09375 1179.117188 Z M 410.734375 1090.417969 " clip-rule="nonzero"/></clipPath><clipPath id="d812b441fb"><path d="M 410.734375 1090.417969 L 499.433594 1060.058594 L 529.792969 1148.757812 L 441.09375 1179.117188 Z M 410.734375 1090.417969 " clip-rule="nonzero"/></clipPath><clipPath id="dceea829ac"><path d="M 410.734375 1090.417969 L 499.433594 1060.058594 L 529.792969 1148.757812 L 441.09375 1179.117188 Z M 410.734375 1090.417969 " clip-rule="nonzero"/></clipPath><clipPath id="c100e13692"><path d="M 76 1252 L 140 1252 L 140 1316 L 76 1316 Z M 76 1252 " clip-rule="nonzero"/></clipPath><clipPath id="e403ff088e"><path d="M 48.65625 1255.027344 L 137.355469 1224.667969 L 167.714844 1313.367188 L 79.015625 1343.726562 Z M 48.65625 1255.027344 " clip-rule="nonzero"/></clipPath><clipPath id="1ab56fb0ab"><path d="M 48.65625 1255.027344 L 137.355469 1224.667969 L 167.714844 1313.367188 L 79.015625 1343.726562 Z M 48.65625 1255.027344 " clip-rule="nonzero"/></clipPath><clipPath id="fcd384c611"><path d="M 48.65625 1255.027344 L 137.355469 1224.667969 L 167.714844 1313.367188 L 79.015625 1343.726562 Z M 48.65625 1255.027344 " clip-rule="nonzero"/></clipPath><clipPath id="fbb62b18c7"><path d="M 76 1093 L 140 1093 L 140 1157 L 76 1157 Z M 76 1093 " clip-rule="nonzero"/></clipPath><clipPath id="cb29333908"><path d="M 48.65625 1095.515625 L 137.355469 1065.15625 L 167.714844 1153.855469 L 79.015625 1184.214844 Z M 48.65625 1095.515625 " clip-rule="nonzero"/></clipPath><clipPath id="3ab657dd4a"><path d="M 48.65625 1095.515625 L 137.355469 1065.15625 L 167.714844 1153.855469 L 79.015625 1184.214844 Z M 48.65625 1095.515625 " clip-rule="nonzero"/></clipPath><clipPath id="5d4eefd644"><path d="M 48.65625 1095.515625 L 137.355469 1065.15625 L 167.714844 1153.855469 L 79.015625 1184.214844 Z M 48.65625 1095.515625 " clip-rule="nonzero"/></clipPath><clipPath id="b772f8d667"><path d="M 670 1267 L 733 1267 L 733 1331 L 670 1331 Z M 670 1267 " clip-rule="nonzero"/></clipPath><clipPath id="bd3c198d8d"><path d="M 641.980469 1270.070312 L 730.679688 1239.710938 L 761.039062 1328.410156 L 672.339844 1358.769531 Z M 641.980469 1270.070312 " clip-rule="nonzero"/></clipPath><clipPath id="1d8807ac07"><path d="M 641.980469 1270.070312 L 730.679688 1239.710938 L 761.039062 1328.410156 L 672.339844 1358.769531 Z M 641.980469 1270.070312 " clip-rule="nonzero"/></clipPath><clipPath id="8ab7dbc9d1"><path d="M 641.980469 1270.070312 L 730.679688 1239.710938 L 761.039062 1328.410156 L 672.339844 1358.769531 Z M 641.980469 1270.070312 " clip-rule="nonzero"/></clipPath><clipPath id="6c2b5cc601"><path d="M 453 126 L 520 126 L 520 192 L 453 192 Z M 453 126 " clip-rule="nonzero"/></clipPath><clipPath id="8ebeb0f990"><path d="M 424.109375 136.25 L 509.15625 96.800781 L 548.605469 181.84375 L 463.5625 221.292969 Z M 424.109375 136.25 " clip-rule="nonzero"/></clipPath><clipPath id="a6d3918725"><path d="M 424.109375 136.25 L 509.15625 96.800781 L 548.605469 181.84375 L 463.5625 221.292969 Z M 424.109375 136.25 " clip-rule="nonzero"/></clipPath><clipPath id="8256671f1d"><path d="M 424.109375 136.25 L 509.15625 96.800781 L 548.605469 181.84375 L 463.5625 221.292969 Z M 424.109375 136.25 " clip-rule="nonzero"/></clipPath><clipPath id="cae966fdf6"><path d="M 484 280 L 551 280 L 551 346 L 484 346 Z M 484 280 " clip-rule="nonzero"/></clipPath><clipPath id="856d8211da"><path d="M 455.582031 289.542969 L 541.011719 250.929688 L 579.625 336.359375 L 494.195312 374.972656 Z M 455.582031 289.542969 " clip-rule="nonzero"/></clipPath><clipPath id="9719f2a8f7"><path d="M 455.582031 289.542969 L 541.011719 250.929688 L 579.625 336.359375 L 494.195312 374.972656 Z M 455.582031 289.542969 " clip-rule="nonzero"/></clipPath><clipPath id="405be350e8"><path d="M 455.582031 289.542969 L 541.011719 250.929688 L 579.625 336.359375 L 494.195312 374.972656 Z M 455.582031 289.542969 " clip-rule="nonzero"/></clipPath><clipPath id="3a9d036662"><path d="M 284 330 L 349 330 L 349 396 L 284 396 Z M 284 330 " clip-rule="nonzero"/></clipPath><clipPath id="ac278edde0"><path d="M 291.882812 301.382812 L 378.058594 338.300781 L 341.140625 424.476562 L 254.964844 387.558594 Z M 291.882812 301.382812 " clip-rule="nonzero"/></clipPath><clipPath id="90d239a752"><path d="M 291.882812 301.382812 L 378.058594 338.300781 L 341.140625 424.476562 L 254.964844 387.558594 Z M 291.882812 301.382812 " clip-rule="nonzero"/></clipPath><clipPath id="82034e1b61"><path d="M 291.882812 301.382812 L 378.058594 338.300781 L 341.140625 424.476562 L 254.964844 387.558594 Z M 291.882812 301.382812 " clip-rule="nonzero"/></clipPath><clipPath id="b9b066f883"><path d="M 124 251 L 190 251 L 190 317 L 124 317 Z M 124 251 " clip-rule="nonzero"/></clipPath><clipPath id="ebd68fbcc4"><path d="M 134.816406 221.519531 L 219.421875 261.898438 L 179.039062 346.507812 L 94.433594 306.125 Z M 134.816406 221.519531 " clip-rule="nonzero"/></clipPath><clipPath id="02de17cfbe"><path d="M 134.816406 221.519531 L 219.421875 261.898438 L 179.039062 346.507812 L 94.433594 306.125 Z M 134.816406 221.519531 " clip-rule="nonzero"/></clipPath><clipPath id="589fe7a487"><path d="M 134.816406 221.519531 L 219.421875 261.898438 L 179.039062 346.507812 L 94.433594 306.125 Z M 134.816406 221.519531 " clip-rule="nonzero"/></clipPath><clipPath id="3498b78315"><path d="M 88 123 L 156 123 L 156 191 L 88 191 Z M 88 123 " clip-rule="nonzero"/></clipPath><clipPath id="77fd597f85"><path d="M 58.210938 137.449219 L 140.84375 93.167969 L 185.125 175.800781 L 102.492188 220.082031 Z M 58.210938 137.449219 " clip-rule="nonzero"/></clipPath><clipPath id="6d3a721621"><path d="M 58.210938 137.449219 L 140.84375 93.167969 L 185.125 175.800781 L 102.492188 220.082031 Z M 58.210938 137.449219 " clip-rule="nonzero"/></clipPath><clipPath id="f18ef950a4"><path d="M 58.210938 137.449219 L 140.84375 93.167969 L 185.125 175.800781 L 102.492188 220.082031 Z M 58.210938 137.449219 " clip-rule="nonzero"/></clipPath><clipPath id="9bb447eace"><path d="M 417 612 L 483 612 L 483 678 L 417 678 Z M 417 612 " clip-rule="nonzero"/></clipPath><clipPath id="ead032ed95"><path d="M 387.964844 622.03125 L 472.992188 582.539062 L 512.484375 667.5625 L 427.457031 707.054688 Z M 387.964844 622.03125 " clip-rule="nonzero"/></clipPath><clipPath id="68e049d953"><path d="M 387.964844 622.03125 L 472.992188 582.539062 L 512.484375 667.5625 L 427.457031 707.054688 Z M 387.964844 622.03125 " clip-rule="nonzero"/></clipPath><clipPath id="276a8a61bb"><path d="M 387.964844 622.03125 L 472.992188 582.539062 L 512.484375 667.5625 L 427.457031 707.054688 Z M 387.964844 622.03125 " clip-rule="nonzero"/></clipPath><clipPath id="3c169bfa60"><path d="M 250 532 L 320 532 L 320 602 L 250 602 Z M 250 532 " clip-rule="nonzero"/></clipPath><clipPath id="a63c2f9ea4"><path d="M 273.125 501.777344 L 350.214844 555.125 L 296.871094 632.214844 L 219.777344 578.867188 Z M 273.125 501.777344 " clip-rule="nonzero"/></clipPath><clipPath id="4df6f58233"><path d="M 273.125 501.777344 L 350.214844 555.125 L 296.871094 632.214844 L 219.777344 578.867188 Z M 273.125 501.777344 " clip-rule="nonzero"/></clipPath><clipPath id="aaad090108"><path d="M 273.125 501.777344 L 350.214844 555.125 L 296.871094 632.214844 L 219.777344 578.867188 Z M 273.125 501.777344 " clip-rule="nonzero"/></clipPath><clipPath id="7546552101"><path d="M 612 438 L 681 438 L 681 507 L 612 507 Z M 612 438 " clip-rule="nonzero"/></clipPath><clipPath id="27c3cdcf37"><path d="M 581.660156 458.167969 L 661.09375 408.378906 L 710.886719 487.816406 L 631.449219 537.605469 Z M 581.660156 458.167969 " clip-rule="nonzero"/></clipPath><clipPath id="9da4847d58"><path d="M 581.660156 458.167969 L 661.09375 408.378906 L 710.886719 487.816406 L 631.449219 537.605469 Z M 581.660156 458.167969 " clip-rule="nonzero"/></clipPath><clipPath id="0381c2134a"><path d="M 581.660156 458.167969 L 661.09375 408.378906 L 710.886719 487.816406 L 631.449219 537.605469 Z M 581.660156 458.167969 " clip-rule="nonzero"/></clipPath><clipPath id="ff39d73ada"><path d="M 282 139 L 350 139 L 350 207 L 282 207 Z M 282 139 " clip-rule="nonzero"/></clipPath><clipPath id="07465c7451"><path d="M 252.511719 154.382812 L 334.921875 109.6875 L 379.617188 192.09375 L 297.210938 236.792969 Z M 252.511719 154.382812 " clip-rule="nonzero"/></clipPath><clipPath id="5f9acd7099"><path d="M 252.511719 154.382812 L 334.921875 109.6875 L 379.617188 192.09375 L 297.210938 236.792969 Z M 252.511719 154.382812 " clip-rule="nonzero"/></clipPath><clipPath id="d46609c7dd"><path d="M 252.511719 154.382812 L 334.921875 109.6875 L 379.617188 192.09375 L 297.210938 236.792969 Z M 252.511719 154.382812 " clip-rule="nonzero"/></clipPath><clipPath id="382bd62e1d"><path d="M 649 296 L 716 296 L 716 363 L 649 363 Z M 649 296 " clip-rule="nonzero"/></clipPath><clipPath id="df052287f3"><path d="M 620.390625 306.480469 L 705.648438 267.488281 L 744.640625 352.742188 L 659.382812 391.738281 Z M 620.390625 306.480469 " clip-rule="nonzero"/></clipPath><clipPath id="c0b77750c9"><path d="M 620.390625 306.480469 L 705.648438 267.488281 L 744.640625 352.742188 L 659.382812 391.738281 Z M 620.390625 306.480469 " clip-rule="nonzero"/></clipPath><clipPath id="029cdba242"><path d="M 620.390625 306.480469 L 705.648438 267.488281 L 744.640625 352.742188 L 659.382812 391.738281 Z M 620.390625 306.480469 " clip-rule="nonzero"/></clipPath><clipPath id="43febc0cc8"><path d="M 666 125 L 739 125 L 739 198 L 666 198 Z M 666 125 " clip-rule="nonzero"/></clipPath><clipPath id="d48cd52f71"><path d="M 692.042969 93.054688 L 770.449219 151.007812 L 712.496094 229.414062 L 634.089844 171.460938 Z M 692.042969 93.054688 " clip-rule="nonzero"/></clipPath><clipPath id="cc5012850c"><path d="M 692.042969 93.054688 L 770.449219 151.007812 L 712.496094 229.414062 L 634.089844 171.460938 Z M 692.042969 93.054688 " clip-rule="nonzero"/></clipPath><clipPath id="43500425a4"><path d="M 692.042969 93.054688 L 770.449219 151.007812 L 712.496094 229.414062 L 634.089844 171.460938 Z M 692.042969 93.054688 " clip-rule="nonzero"/></clipPath><clipPath id="5c85d1de43"><path d="M 448 436 L 512 436 L 512 500 L 448 500 Z M 448 436 " clip-rule="nonzero"/></clipPath><clipPath id="1f5de94eaf"><path d="M 420.289062 438.695312 L 508.988281 408.335938 L 539.347656 497.035156 L 450.648438 527.394531 Z M 420.289062 438.695312 " clip-rule="nonzero"/></clipPath><clipPath id="875b1b567f"><path d="M 420.289062 438.695312 L 508.988281 408.335938 L 539.347656 497.035156 L 450.648438 527.394531 Z M 420.289062 438.695312 " clip-rule="nonzero"/></clipPath><clipPath id="f4821273e8"><path d="M 420.289062 438.695312 L 508.988281 408.335938 L 539.347656 497.035156 L 450.648438 527.394531 Z M 420.289062 438.695312 " clip-rule="nonzero"/></clipPath><clipPath id="f06f8848cd"><path d="M 86 601 L 150 601 L 150 664 L 86 664 Z M 86 601 " clip-rule="nonzero"/></clipPath><clipPath id="eeead740c7"><path d="M 58.210938 603.304688 L 146.910156 572.945312 L 177.269531 661.644531 L 88.570312 692.003906 Z M 58.210938 603.304688 " clip-rule="nonzero"/></clipPath><clipPath id="c48f8c57a6"><path d="M 58.210938 603.304688 L 146.910156 572.945312 L 177.269531 661.644531 L 88.570312 692.003906 Z M 58.210938 603.304688 " clip-rule="nonzero"/></clipPath><clipPath id="21c4c265c8"><path d="M 58.210938 603.304688 L 146.910156 572.945312 L 177.269531 661.644531 L 88.570312 692.003906 Z M 58.210938 603.304688 " clip-rule="nonzero"/></clipPath><clipPath id="81f3ec0872"><path d="M 86 441 L 150 441 L 150 505 L 86 505 Z M 86 441 " clip-rule="nonzero"/></clipPath><clipPath id="289e02aa32"><path d="M 58.210938 443.792969 L 146.910156 413.433594 L 177.269531 502.132812 L 88.570312 532.492188 Z M 58.210938 443.792969 " clip-rule="nonzero"/></clipPath><clipPath id="785c41c9c1"><path d="M 58.210938 443.792969 L 146.910156 413.433594 L 177.269531 502.132812 L 88.570312 532.492188 Z M 58.210938 443.792969 " clip-rule="nonzero"/></clipPath><clipPath id="805d2452aa"><path d="M 58.210938 443.792969 L 146.910156 413.433594 L 177.269531 502.132812 L 88.570312 532.492188 Z M 58.210938 443.792969 " clip-rule="nonzero"/></clipPath><clipPath id="c1fdcac0aa"><path d="M 679 616 L 743 616 L 743 679 L 679 679 Z M 679 616 " clip-rule="nonzero"/></clipPath><clipPath id="6ad910db69"><path d="M 651.535156 618.347656 L 740.234375 587.988281 L 770.59375 676.6875 L 681.894531 707.046875 Z M 651.535156 618.347656 " clip-rule="nonzero"/></clipPath><clipPath id="a604df5408"><path d="M 651.535156 618.347656 L 740.234375 587.988281 L 770.59375 676.6875 L 681.894531 707.046875 Z M 651.535156 618.347656 " clip-rule="nonzero"/></clipPath><clipPath id="18f003630e"><path d="M 651.535156 618.347656 L 740.234375 587.988281 L 770.59375 676.6875 L 681.894531 707.046875 Z M 651.535156 618.347656 " clip-rule="nonzero"/></clipPath></defs><g clip-path="url(#8ca5e4c5ce)"><g clip-path="url(#1a090d422a)"><g clip-path="url(#bae9983451)"><g clip-path="url(#b96bfca749)"><path fill="#000000" d="M 497.480469 824.109375 C 493.578125 825.921875 490.1875 825.230469 487.828125 823.367188 L 490.332031 819.792969 C 491.917969 820.847656 493.589844 821.386719 495.664062 820.425781 C 497.40625 819.617188 498.113281 818.230469 497.554688 817.027344 C 496.71875 815.222656 493.976562 815.632812 491.933594 815.691406 C 488.300781 815.808594 485.535156 815.121094 483.945312 811.695312 C 482.480469 808.539062 483.769531 805.023438 487.527344 803.28125 C 490.199219 802.039062 492.558594 802.078125 495.066406 803.871094 L 492.769531 807.492188 C 491.449219 806.535156 490.429688 806.386719 489.230469 806.945312 C 487.996094 807.515625 487.578125 808.660156 488.050781 809.679688 C 488.636719 810.941406 489.652344 811.089844 491.820312 811.035156 C 496.351562 810.902344 499.800781 810.847656 501.734375 815.015625 C 503.492188 818.804688 501.480469 822.253906 497.480469 824.109375 Z M 484.855469 822.261719 C 486.875 826.621094 485.261719 830.167969 481.535156 831.894531 C 478.167969 833.457031 475.554688 833.105469 473.523438 831.328125 L 473.46875 831.355469 L 475.777344 827.375 C 476.980469 828.238281 477.964844 828.792969 479.402344 828.125 C 480.789062 827.484375 481.328125 826.382812 480.351562 824.28125 L 473.527344 809.570312 L 478.003906 807.492188 Z M 464.804688 843.53125 L 509.566406 822.769531 L 488.800781 778.007812 L 444.042969 798.769531 Z M 464.804688 843.53125 " fill-opacity="1" fill-rule="evenodd"/></g></g></g></g><g clip-path="url(#f5254d8f3f)"><g clip-path="url(#3fa931a3df)"><g clip-path="url(#2115b19e13)"><g clip-path="url(#da34d18e36)"><path fill="#000000" d="M 528.59375 978.214844 C 524.671875 979.988281 521.289062 979.265625 518.949219 977.378906 L 521.488281 973.832031 C 523.0625 974.902344 524.730469 975.453125 526.8125 974.511719 C 528.5625 973.722656 529.285156 972.34375 528.738281 971.136719 C 527.917969 969.320312 525.171875 969.703125 523.132812 969.746094 C 519.496094 969.824219 516.734375 969.109375 515.179688 965.667969 C 513.75 962.5 515.070312 958.996094 518.847656 957.289062 C 521.53125 956.074219 523.886719 956.136719 526.378906 957.953125 L 524.042969 961.554688 C 522.734375 960.582031 521.71875 960.425781 520.511719 960.96875 C 519.273438 961.53125 518.84375 962.667969 519.304688 963.695312 C 519.878906 964.960938 520.894531 965.121094 523.0625 965.085938 C 527.59375 964.996094 531.046875 964.976562 532.9375 969.164062 C 534.65625 972.96875 532.609375 976.402344 528.59375 978.214844 Z M 515.988281 976.246094 C 517.964844 980.621094 516.316406 984.152344 512.570312 985.84375 C 509.191406 987.375 506.582031 986.996094 504.570312 985.199219 L 504.535156 985.214844 L 504.519531 985.21875 L 504.511719 985.222656 L 506.863281 981.269531 C 508.054688 982.144531 509.03125 982.707031 510.480469 982.054688 C 511.867188 981.425781 512.417969 980.328125 511.464844 978.21875 L 504.785156 963.441406 L 509.28125 961.410156 Z M 495.730469 997.316406 L 540.691406 976.992188 L 520.367188 932.03125 L 475.40625 952.351562 Z M 495.730469 997.316406 " fill-opacity="1" fill-rule="evenodd"/></g></g></g></g><g clip-path="url(#fbf866bea9)"><g clip-path="url(#80a2dbb990)"><g clip-path="url(#83481ff0db)"><g clip-path="url(#f2b9e4bf15)"><path fill="#000000" d="M 310.847656 1038.953125 C 306.890625 1037.257812 305.140625 1034.273438 304.949219 1031.273438 L 309.28125 1030.75 C 309.554688 1032.632812 310.273438 1034.238281 312.375 1035.136719 C 314.140625 1035.894531 315.644531 1035.492188 316.164062 1034.273438 C 316.949219 1032.445312 314.8125 1030.679688 313.402344 1029.199219 C 310.890625 1026.574219 309.554688 1024.054688 311.039062 1020.585938 C 312.410156 1017.390625 315.886719 1015.996094 319.695312 1017.628906 C 322.402344 1018.789062 323.949219 1020.566406 324.292969 1023.632812 L 320.0625 1024.34375 C 319.890625 1022.71875 319.324219 1021.863281 318.105469 1021.34375 C 316.855469 1020.808594 315.722656 1021.257812 315.28125 1022.292969 C 314.734375 1023.574219 315.304688 1024.429688 316.792969 1026.003906 C 319.917969 1029.285156 322.265625 1031.820312 320.457031 1036.039062 C 318.8125 1039.878906 314.898438 1040.6875 310.847656 1038.953125 Z M 303.785156 1028.324219 C 301.894531 1032.738281 298.175781 1033.90625 294.398438 1032.289062 C 290.988281 1030.828125 289.503906 1028.648438 289.472656 1025.949219 L 289.4375 1025.933594 L 289.421875 1025.929688 L 289.410156 1025.925781 L 293.917969 1024.984375 C 294.078125 1026.457031 294.320312 1027.558594 295.78125 1028.183594 C 297.183594 1028.785156 298.363281 1028.449219 299.273438 1026.320312 L 305.660156 1011.414062 L 310.195312 1013.355469 Z M 274.5625 1027.617188 L 319.917969 1047.046875 L 339.351562 1001.691406 L 293.996094 982.261719 Z M 274.5625 1027.617188 " fill-opacity="1" fill-rule="evenodd"/></g></g></g></g><g clip-path="url(#4852ec5a88)"><g clip-path="url(#56bab3631a)"><g clip-path="url(#2b4cdabe3a)"><g clip-path="url(#8f84f105b7)"><path fill="#000000" d="M 150.273438 960.171875 C 146.390625 958.316406 144.761719 955.265625 144.691406 952.257812 L 149.042969 951.910156 C 149.238281 953.804688 149.890625 955.433594 151.953125 956.421875 C 153.6875 957.246094 155.207031 956.910156 155.777344 955.714844 C 156.636719 953.914062 154.570312 952.066406 153.222656 950.53125 C 150.816406 947.804688 149.585938 945.234375 151.210938 941.824219 C 152.707031 938.6875 156.242188 937.4375 159.980469 939.222656 C 162.636719 940.492188 164.109375 942.332031 164.328125 945.40625 L 160.074219 945.945312 C 159.96875 944.320312 159.433594 943.441406 158.238281 942.871094 C 157.011719 942.285156 155.863281 942.691406 155.378906 943.707031 C 154.78125 944.960938 155.316406 945.839844 156.738281 947.472656 C 159.730469 950.878906 161.96875 953.503906 159.992188 957.652344 C 158.195312 961.417969 154.25 962.066406 150.273438 960.171875 Z M 143.648438 949.261719 C 141.578125 953.597656 137.816406 954.613281 134.109375 952.847656 C 130.761719 951.246094 129.367188 949.007812 129.441406 946.3125 L 129.394531 946.289062 L 129.382812 946.285156 L 133.925781 945.53125 C 134.023438 947.007812 134.222656 948.117188 135.65625 948.800781 C 137.03125 949.457031 138.226562 949.171875 139.222656 947.078125 L 146.207031 932.445312 L 150.660156 934.570312 Z M 114.480469 947.371094 L 159.011719 968.625 L 180.265625 924.097656 L 135.734375 902.84375 Z M 114.480469 947.371094 " fill-opacity="1" fill-rule="evenodd"/></g></g></g></g><g clip-path="url(#ae4bd32738)"><g clip-path="url(#3896bc780e)"><g clip-path="url(#c892c04929)"><g clip-path="url(#2352c2b794)"><path fill="#000000" d="M 133.527344 820.472656 C 129.730469 822.507812 126.308594 822.011719 123.847656 820.289062 L 126.140625 816.578125 C 127.785156 817.539062 129.484375 817.980469 131.5 816.902344 C 133.191406 815.992188 133.816406 814.570312 133.191406 813.402344 C 132.25 811.644531 129.539062 812.210938 127.503906 812.390625 C 123.882812 812.714844 121.082031 812.1875 119.296875 808.859375 C 117.65625 805.796875 118.738281 802.207031 122.390625 800.253906 C 124.988281 798.859375 127.339844 798.761719 129.949219 800.40625 L 127.863281 804.15625 C 126.492188 803.277344 125.464844 803.1875 124.296875 803.8125 C 123.101562 804.457031 122.75 805.621094 123.28125 806.613281 C 123.9375 807.839844 124.960938 807.929688 127.121094 807.75 C 131.636719 807.355469 135.078125 807.101562 137.25 811.152344 C 139.222656 814.832031 137.410156 818.394531 133.527344 820.472656 Z M 120.8125 819.359375 C 123.082031 823.589844 121.675781 827.226562 118.054688 829.167969 C 114.785156 830.917969 112.152344 830.71875 110.023438 829.058594 L 109.992188 829.078125 L 109.96875 829.089844 L 112.046875 824.984375 C 113.300781 825.777344 114.308594 826.273438 115.710938 825.523438 C 117.054688 824.804688 117.527344 823.671875 116.433594 821.632812 L 108.773438 807.339844 L 113.125 805.007812 Z M 102.023438 841.746094 L 145.511719 818.441406 L 122.207031 774.949219 L 78.714844 798.253906 Z M 102.023438 841.746094 " fill-opacity="1" fill-rule="evenodd"/></g></g></g></g><g clip-path="url(#f692fda3d2)"><g clip-path="url(#74fcebd9f5)"><g clip-path="url(#81a340146e)"><g clip-path="url(#f29e908986)"><path fill="#000000" d="M 461.355469 1309.851562 C 457.449219 1311.664062 454.0625 1310.972656 451.699219 1309.113281 L 454.203125 1305.539062 C 455.789062 1306.59375 457.460938 1307.128906 459.535156 1306.167969 C 461.277344 1305.359375 461.984375 1303.96875 461.425781 1302.769531 C 460.585938 1300.960938 457.84375 1301.375 455.804688 1301.4375 C 452.171875 1301.554688 449.402344 1300.867188 447.8125 1297.441406 C 446.347656 1294.289062 447.632812 1290.769531 451.390625 1289.023438 C 454.0625 1287.785156 456.417969 1287.820312 458.929688 1289.613281 L 456.632812 1293.234375 C 455.3125 1292.277344 454.292969 1292.132812 453.09375 1292.691406 C 451.859375 1293.261719 451.441406 1294.40625 451.917969 1295.425781 C 452.503906 1296.6875 453.519531 1296.835938 455.6875 1296.78125 C 460.21875 1296.644531 463.667969 1296.589844 465.605469 1300.753906 C 467.363281 1304.539062 465.351562 1307.996094 461.355469 1309.851562 Z M 448.726562 1308.007812 C 450.75 1312.367188 449.136719 1315.914062 445.410156 1317.644531 C 442.046875 1319.207031 439.433594 1318.855469 437.402344 1317.082031 L 437.367188 1317.09375 L 437.34375 1317.105469 L 439.652344 1313.125 C 440.859375 1313.988281 441.839844 1314.542969 443.277344 1313.875 C 444.664062 1313.230469 445.199219 1312.132812 444.226562 1310.03125 L 437.394531 1295.320312 L 441.867188 1293.242188 Z M 428.6875 1329.289062 L 473.4375 1308.503906 L 452.652344 1263.753906 L 407.902344 1284.539062 Z M 428.6875 1329.289062 " fill-opacity="1" fill-rule="evenodd"/></g></g></g></g><g clip-path="url(#15078c843e)"><g clip-path="url(#714e4a4ca9)"><g clip-path="url(#84829461ab)"><g clip-path="url(#44b4841851)"><path fill="#000000" d="M 274.414062 1243.304688 C 270.875 1240.855469 269.753906 1237.585938 270.164062 1234.605469 L 274.511719 1234.957031 C 274.40625 1236.855469 274.789062 1238.570312 276.671875 1239.871094 C 278.25 1240.964844 279.804688 1240.871094 280.558594 1239.78125 C 281.691406 1238.144531 279.949219 1235.988281 278.863281 1234.261719 C 276.921875 1231.1875 276.113281 1228.449219 278.261719 1225.34375 C 280.242188 1222.488281 283.925781 1221.816406 287.332031 1224.171875 C 289.753906 1225.847656 290.914062 1227.902344 290.640625 1230.972656 L 286.355469 1230.824219 C 286.511719 1229.203125 286.125 1228.25 285.035156 1227.496094 C 283.914062 1226.722656 282.71875 1226.941406 282.078125 1227.867188 C 281.285156 1229.007812 281.671875 1229.960938 282.820312 1231.800781 C 285.230469 1235.640625 287.023438 1238.589844 284.410156 1242.367188 C 282.035156 1245.800781 278.039062 1245.8125 274.414062 1243.304688 Z M 269.609375 1231.484375 C 266.878906 1235.433594 263 1235.835938 259.621094 1233.5 C 256.570312 1231.386719 255.550781 1228.957031 256.054688 1226.304688 L 256.027344 1226.285156 L 256.011719 1226.273438 L 256.003906 1226.269531 L 260.605469 1226.246094 C 260.46875 1227.722656 260.488281 1228.847656 261.796875 1229.753906 C 263.050781 1230.621094 264.273438 1230.527344 265.589844 1228.621094 L 274.816406 1215.289062 L 278.875 1218.09375 Z M 241.117188 1224.96875 L 281.691406 1253.046875 L 309.769531 1212.472656 L 269.195312 1184.394531 Z M 241.117188 1224.96875 " fill-opacity="1" fill-rule="evenodd"/></g></g></g></g><g clip-path="url(#01e6baa690)"><g clip-path="url(#517e82bd71)"><g clip-path="url(#17036e67e9)"><g clip-path="url(#15ace83783)"><path fill="#000000" d="M 658.902344 1135.359375 C 655.253906 1137.648438 651.808594 1137.386719 649.230469 1135.832031 L 651.269531 1131.976562 C 652.972656 1132.824219 654.699219 1133.148438 656.636719 1131.933594 C 658.265625 1130.914062 658.792969 1129.449219 658.089844 1128.324219 C 657.03125 1126.636719 654.363281 1127.386719 652.347656 1127.703125 C 648.753906 1128.273438 645.921875 1127.9375 643.917969 1124.738281 C 642.070312 1121.792969 642.910156 1118.140625 646.417969 1115.941406 C 648.914062 1114.375 651.257812 1114.117188 653.972656 1115.582031 L 652.144531 1119.464844 C 650.714844 1118.679688 649.6875 1118.660156 648.566406 1119.363281 C 647.414062 1120.085938 647.140625 1121.273438 647.738281 1122.226562 C 648.476562 1123.40625 649.507812 1123.425781 651.648438 1123.097656 C 656.128906 1122.398438 659.542969 1121.914062 661.984375 1125.804688 C 664.203125 1129.34375 662.636719 1133.019531 658.902344 1135.359375 Z M 646.144531 1135.109375 C 648.695312 1139.179688 647.535156 1142.902344 644.054688 1145.082031 C 640.914062 1147.054688 638.277344 1147.03125 636.039062 1145.523438 L 636.007812 1145.542969 L 635.984375 1145.554688 L 637.78125 1141.316406 C 639.082031 1142.023438 640.125 1142.453125 641.472656 1141.609375 C 642.761719 1140.796875 643.160156 1139.636719 641.929688 1137.675781 L 633.316406 1123.933594 L 637.496094 1121.3125 Z M 628.914062 1158.722656 L 670.722656 1132.515625 L 644.519531 1090.707031 L 602.710938 1116.914062 Z M 628.914062 1158.722656 " fill-opacity="1" fill-rule="evenodd"/></g></g></g></g><g clip-path="url(#6aa36a8904)"><g clip-path="url(#e09b0e6937)"><g clip-path="url(#c1c3290774)"><g clip-path="url(#d076e6d0a9)"><path fill="#000000" d="M 327.984375 836.980469 C 324.199219 839.035156 320.773438 838.554688 318.300781 836.84375 L 320.578125 833.121094 C 322.226562 834.074219 323.929688 834.507812 325.9375 833.417969 C 327.625 832.5 328.246094 831.074219 327.613281 829.910156 C 326.664062 828.15625 323.953125 828.738281 321.921875 828.925781 C 318.300781 829.269531 315.496094 828.757812 313.695312 825.4375 C 312.039062 822.382812 313.105469 818.789062 316.746094 816.816406 C 319.335938 815.410156 321.691406 815.300781 324.304688 816.933594 L 322.238281 820.691406 C 320.863281 819.820312 319.835938 819.734375 318.671875 820.367188 C 317.476562 821.015625 317.132812 822.183594 317.667969 823.171875 C 318.332031 824.394531 319.355469 824.476562 321.515625 824.289062 C 326.027344 823.871094 329.46875 823.601562 331.660156 827.640625 C 333.648438 831.308594 331.859375 834.878906 327.984375 836.980469 Z M 315.265625 835.925781 C 317.554688 840.148438 316.167969 843.792969 312.554688 845.75 C 309.292969 847.519531 306.664062 847.332031 304.527344 845.683594 L 304.492188 845.703125 L 304.480469 845.710938 L 304.46875 845.714844 L 306.527344 841.597656 C 307.785156 842.386719 308.796875 842.878906 310.195312 842.121094 C 311.535156 841.394531 312.003906 840.261719 310.898438 838.222656 L 303.167969 823.96875 L 307.503906 821.617188 Z M 296.585938 858.410156 L 339.960938 834.886719 L 316.4375 791.511719 L 273.0625 815.039062 Z M 296.585938 858.410156 " fill-opacity="1" fill-rule="evenodd"/></g></g></g></g><g clip-path="url(#02cac4c8b7)"><g clip-path="url(#a38a119c6e)"><g clip-path="url(#e828b96d1d)"><g clip-path="url(#fe2de95e2d)"><path fill="#000000" d="M 693.566406 994.785156 C 689.652344 996.578125 686.265625 995.867188 683.917969 993.992188 L 686.441406 990.433594 C 688.019531 991.496094 689.6875 992.042969 691.769531 991.089844 C 693.515625 990.292969 694.230469 988.910156 693.679688 987.703125 C 692.851562 985.894531 690.105469 986.289062 688.066406 986.339844 C 684.429688 986.4375 681.667969 985.734375 680.097656 982.296875 C 678.652344 979.136719 679.957031 975.625 683.726562 973.902344 C 686.40625 972.675781 688.761719 972.726562 691.261719 974.535156 L 688.941406 978.144531 C 687.628906 977.179688 686.609375 977.027344 685.40625 977.578125 C 684.167969 978.140625 683.746094 979.285156 684.214844 980.308594 C 684.792969 981.570312 685.808594 981.726562 687.976562 981.683594 C 692.507812 981.570312 695.957031 981.539062 697.871094 985.714844 C 699.605469 989.511719 697.574219 992.953125 693.566406 994.785156 Z M 680.949219 992.871094 C 682.949219 997.238281 681.3125 1000.777344 677.578125 1002.488281 C 674.203125 1004.03125 671.59375 1003.664062 669.570312 1001.875 L 669.523438 1001.898438 L 669.511719 1001.902344 L 671.847656 997.933594 C 673.046875 998.804688 674.023438 999.363281 675.46875 998.703125 C 676.855469 998.070312 677.398438 996.972656 676.4375 994.863281 L 669.691406 980.117188 L 674.179688 978.066406 Z M 660.785156 1014.03125 L 705.65625 993.507812 L 685.136719 948.636719 L 640.265625 969.160156 Z M 660.785156 1014.03125 " fill-opacity="1" fill-rule="evenodd"/></g></g></g></g><g clip-path="url(#6ba471c6a3)"><g clip-path="url(#07e01c2e70)"><g clip-path="url(#1d7f693659)"><g clip-path="url(#4994c2535d)"><path fill="#000000" d="M 690.847656 838.480469 C 687.25 835.820312 686.191406 832.382812 686.714844 829.300781 L 691.222656 829.804688 C 691.050781 831.777344 691.394531 833.570312 693.304688 834.984375 C 694.910156 836.171875 696.53125 836.125 697.347656 835.019531 C 698.582031 833.351562 696.839844 831.054688 695.765625 829.222656 C 693.847656 825.964844 693.097656 823.09375 695.429688 819.9375 C 697.582031 817.027344 701.433594 816.453125 704.898438 819.011719 C 707.363281 820.832031 708.5 823.003906 708.117188 826.1875 L 703.664062 825.894531 C 703.882812 824.214844 703.507812 823.210938 702.402344 822.390625 C 701.265625 821.550781 700.011719 821.738281 699.316406 822.679688 C 698.457031 823.84375 698.828125 824.847656 699.957031 826.796875 C 702.339844 830.867188 704.109375 833.988281 701.269531 837.832031 C 698.6875 841.320312 694.535156 841.207031 690.847656 838.480469 Z M 686.238281 826.035156 C 683.269531 830.050781 679.226562 830.347656 675.792969 827.808594 C 672.6875 825.515625 671.707031 822.953125 672.316406 820.214844 L 672.285156 820.191406 L 672.273438 820.179688 L 672.261719 820.175781 L 677.046875 820.300781 C 676.859375 821.832031 676.84375 823 678.171875 823.984375 C 679.445312 824.925781 680.71875 824.871094 682.152344 822.933594 L 692.175781 809.371094 L 696.304688 812.417969 Z M 656.832031 818.339844 L 698.097656 848.84375 L 728.601562 807.574219 L 687.332031 777.074219 Z M 656.832031 818.339844 " fill-opacity="1" fill-rule="evenodd"/></g></g></g></g><g clip-path="url(#74d2e14b07)"><g clip-path="url(#c56d3bce93)"><g clip-path="url(#d812b441fb)"><g clip-path="url(#dceea829ac)"><path fill="#000000" d="M 489.4375 1135.011719 C 485.363281 1136.40625 482.066406 1135.367188 479.914062 1133.265625 L 482.777344 1129.976562 C 484.242188 1131.191406 485.847656 1131.898438 488.011719 1131.160156 C 489.828125 1130.539062 490.679688 1129.230469 490.25 1127.976562 C 489.605469 1126.09375 486.835938 1126.214844 484.796875 1126.0625 C 481.171875 1125.800781 478.492188 1124.828125 477.269531 1121.253906 C 476.144531 1117.964844 477.792969 1114.601562 481.710938 1113.257812 C 484.5 1112.304688 486.839844 1112.589844 489.148438 1114.632812 L 486.484375 1117.996094 C 485.269531 1116.90625 484.273438 1116.652344 483.019531 1117.082031 C 481.734375 1117.519531 481.199219 1118.613281 481.5625 1119.679688 C 482.011719 1120.996094 483.007812 1121.25 485.167969 1121.421875 C 489.691406 1121.761719 493.128906 1122.066406 494.617188 1126.414062 C 495.96875 1130.363281 493.605469 1133.585938 489.4375 1135.011719 Z M 477.070312 1131.859375 C 478.625 1136.402344 476.648438 1139.761719 472.761719 1141.09375 C 469.253906 1142.292969 466.691406 1141.671875 464.855469 1139.691406 L 464.820312 1139.703125 L 464.804688 1139.710938 L 464.796875 1139.710938 L 467.511719 1135.996094 C 468.617188 1136.980469 469.535156 1137.636719 471.039062 1137.121094 C 472.480469 1136.625 473.132812 1135.585938 472.382812 1133.394531 L 467.128906 1118.054688 L 471.796875 1116.457031 Z M 454.910156 1150.917969 L 501.59375 1134.941406 L 485.617188 1088.257812 L 438.933594 1104.234375 Z M 454.910156 1150.917969 " fill-opacity="1" fill-rule="evenodd"/></g></g></g></g><g clip-path="url(#c100e13692)"><g clip-path="url(#e403ff088e)"><g clip-path="url(#1ab56fb0ab)"><g clip-path="url(#fcd384c611)"><path fill="#000000" d="M 127.359375 1299.621094 C 123.285156 1301.015625 119.988281 1299.976562 117.835938 1297.875 L 120.699219 1294.585938 C 122.164062 1295.796875 123.769531 1296.507812 125.933594 1295.765625 C 127.75 1295.144531 128.601562 1293.839844 128.171875 1292.585938 C 127.527344 1290.703125 124.757812 1290.824219 122.71875 1290.671875 C 119.09375 1290.40625 116.414062 1289.433594 115.191406 1285.863281 C 114.066406 1282.570312 115.714844 1279.207031 119.632812 1277.867188 C 122.421875 1276.914062 124.761719 1277.195312 127.070312 1279.242188 L 124.40625 1282.605469 C 123.191406 1281.511719 122.195312 1281.261719 120.941406 1281.6875 C 119.65625 1282.128906 119.121094 1283.222656 119.484375 1284.289062 C 119.933594 1285.605469 120.929688 1285.859375 123.089844 1286.027344 C 127.613281 1286.367188 131.050781 1286.675781 132.539062 1291.023438 C 133.890625 1294.972656 131.527344 1298.195312 127.359375 1299.621094 Z M 114.992188 1296.464844 C 116.546875 1301.011719 114.570312 1304.371094 110.683594 1305.703125 C 107.175781 1306.902344 104.613281 1306.28125 102.777344 1304.300781 L 102.742188 1304.3125 L 102.726562 1304.316406 L 102.71875 1304.320312 L 105.433594 1300.605469 C 106.539062 1301.589844 107.457031 1302.242188 108.960938 1301.726562 C 110.402344 1301.234375 111.054688 1300.195312 110.304688 1298.003906 L 105.050781 1282.660156 L 109.71875 1281.0625 Z M 92.832031 1315.527344 L 139.515625 1299.550781 L 123.539062 1252.867188 L 76.855469 1268.84375 Z M 92.832031 1315.527344 " fill-opacity="1" fill-rule="evenodd"/></g></g></g></g><g clip-path="url(#fbb62b18c7)"><g clip-path="url(#cb29333908)"><g clip-path="url(#3ab657dd4a)"><g clip-path="url(#5d4eefd644)"><path fill="#000000" d="M 127.359375 1140.113281 C 123.285156 1141.503906 119.988281 1140.464844 117.835938 1138.363281 L 120.699219 1135.074219 C 122.164062 1136.289062 123.769531 1136.996094 125.933594 1136.257812 C 127.75 1135.636719 128.601562 1134.332031 128.171875 1133.078125 C 127.527344 1131.191406 124.757812 1131.3125 122.71875 1131.160156 C 119.09375 1130.898438 116.414062 1129.925781 115.191406 1126.351562 C 114.066406 1123.0625 115.714844 1119.699219 119.632812 1118.355469 C 122.421875 1117.402344 124.761719 1117.6875 127.070312 1119.730469 L 124.40625 1123.09375 C 123.191406 1122.003906 122.195312 1121.75 120.941406 1122.179688 C 119.65625 1122.621094 119.121094 1123.714844 119.484375 1124.777344 C 119.933594 1126.09375 120.929688 1126.347656 123.089844 1126.519531 C 127.613281 1126.859375 131.050781 1127.167969 132.539062 1131.511719 C 133.890625 1135.460938 131.527344 1138.683594 127.359375 1140.113281 Z M 114.992188 1136.957031 C 116.546875 1141.5 114.570312 1144.859375 110.683594 1146.191406 C 107.175781 1147.394531 104.613281 1146.769531 102.777344 1144.789062 L 102.742188 1144.800781 L 102.71875 1144.8125 L 105.433594 1141.09375 C 106.539062 1142.078125 107.457031 1142.734375 108.960938 1142.21875 C 110.402344 1141.726562 111.054688 1140.6875 110.304688 1138.492188 L 105.050781 1123.152344 L 109.71875 1121.554688 Z M 92.832031 1156.015625 L 139.515625 1140.039062 L 123.539062 1093.355469 L 76.855469 1109.332031 Z M 92.832031 1156.015625 " fill-opacity="1" fill-rule="evenodd"/></g></g></g></g><g clip-path="url(#b772f8d667)"><g clip-path="url(#bd3c198d8d)"><g clip-path="url(#1d8807ac07)"><g clip-path="url(#8ab7dbc9d1)"><path fill="#000000" d="M 720.683594 1314.667969 C 716.609375 1316.0625 713.3125 1315.019531 711.160156 1312.917969 L 714.023438 1309.628906 C 715.488281 1310.84375 717.09375 1311.550781 719.257812 1310.8125 C 721.074219 1310.191406 721.925781 1308.886719 721.496094 1307.632812 C 720.851562 1305.746094 718.082031 1305.867188 716.042969 1305.714844 C 712.417969 1305.453125 709.738281 1304.480469 708.515625 1300.90625 C 707.390625 1297.617188 709.039062 1294.253906 712.957031 1292.910156 C 715.746094 1291.957031 718.085938 1292.242188 720.394531 1294.285156 L 717.730469 1297.648438 C 716.515625 1296.558594 715.519531 1296.304688 714.265625 1296.734375 C 712.980469 1297.175781 712.445312 1298.269531 712.808594 1299.332031 C 713.257812 1300.648438 714.257812 1300.902344 716.417969 1301.074219 C 720.9375 1301.414062 724.375 1301.722656 725.863281 1306.066406 C 727.214844 1310.015625 724.851562 1313.238281 720.683594 1314.667969 Z M 708.316406 1311.511719 C 709.871094 1316.054688 707.894531 1319.417969 704.007812 1320.746094 C 700.5 1321.949219 697.9375 1321.324219 696.101562 1319.34375 L 696.070312 1319.355469 L 696.050781 1319.363281 L 696.042969 1319.367188 L 698.757812 1315.648438 C 699.863281 1316.632812 700.78125 1317.289062 702.285156 1316.773438 C 703.726562 1316.28125 704.378906 1315.242188 703.628906 1313.050781 L 698.375 1297.707031 L 703.046875 1296.109375 Z M 686.15625 1330.570312 L 732.839844 1314.59375 L 716.863281 1267.910156 L 670.179688 1283.886719 Z M 686.15625 1330.570312 " fill-opacity="1" fill-rule="evenodd"/></g></g></g></g><g clip-path="url(#6c2b5cc601)"><g clip-path="url(#8ebeb0f990)"><g clip-path="url(#a6d3918725)"><g clip-path="url(#8256671f1d)"><path fill="#000000" d="M 507.035156 172.386719 C 503.132812 174.199219 499.742188 173.507812 497.382812 171.644531 L 499.886719 168.070312 C 501.472656 169.125 503.144531 169.664062 505.21875 168.699219 C 506.960938 167.894531 507.667969 166.507812 507.109375 165.304688 C 506.273438 163.496094 503.53125 163.90625 501.488281 163.96875 C 497.855469 164.085938 495.089844 163.398438 493.5 159.972656 C 492.035156 156.816406 493.324219 153.300781 497.082031 151.554688 C 499.753906 150.316406 502.113281 150.355469 504.621094 152.148438 L 502.324219 155.769531 C 501.003906 154.8125 499.984375 154.664062 498.785156 155.222656 C 497.550781 155.792969 497.132812 156.9375 497.605469 157.957031 C 498.191406 159.21875 499.207031 159.367188 501.375 159.3125 C 505.90625 159.179688 509.355469 159.125 511.289062 163.292969 C 513.046875 167.078125 511.035156 170.53125 507.035156 172.386719 Z M 494.410156 170.539062 C 496.429688 174.894531 494.816406 178.445312 491.089844 180.171875 C 487.722656 181.734375 485.109375 181.382812 483.078125 179.605469 L 483.046875 179.621094 L 483.03125 179.625 L 483.023438 179.632812 L 485.335938 175.652344 C 486.539062 176.515625 487.519531 177.070312 488.960938 176.402344 C 490.34375 175.761719 490.882812 174.660156 489.90625 172.558594 L 483.082031 157.847656 L 487.558594 155.769531 Z M 474.359375 191.808594 L 519.121094 171.042969 L 498.355469 126.285156 L 453.597656 147.046875 Z M 474.359375 191.808594 " fill-opacity="1" fill-rule="evenodd"/></g></g></g></g><g clip-path="url(#cae966fdf6)"><g clip-path="url(#856d8211da)"><g clip-path="url(#9719f2a8f7)"><g clip-path="url(#405be350e8)"><path fill="#000000" d="M 538.148438 326.492188 C 534.226562 328.265625 530.84375 327.542969 528.503906 325.65625 L 531.042969 322.109375 C 532.617188 323.179688 534.285156 323.730469 536.367188 322.789062 C 538.117188 322 538.839844 320.621094 538.292969 319.410156 C 537.472656 317.597656 534.726562 317.980469 532.6875 318.023438 C 529.050781 318.101562 526.289062 317.386719 524.734375 313.945312 C 523.304688 310.777344 524.625 307.273438 528.402344 305.566406 C 531.085938 304.351562 533.441406 304.414062 535.933594 306.230469 L 533.597656 309.832031 C 532.289062 308.859375 531.273438 308.703125 530.066406 309.246094 C 528.828125 309.808594 528.398438 310.945312 528.859375 311.972656 C 529.433594 313.238281 530.449219 313.398438 532.617188 313.363281 C 537.148438 313.273438 540.601562 313.253906 542.492188 317.441406 C 544.210938 321.246094 542.164062 324.675781 538.148438 326.492188 Z M 525.542969 324.523438 C 527.519531 328.898438 525.871094 332.429688 522.125 334.121094 C 518.746094 335.652344 516.136719 335.273438 514.125 333.476562 L 514.089844 333.492188 L 514.074219 333.496094 L 514.066406 333.5 L 516.417969 329.546875 C 517.609375 330.421875 518.585938 330.984375 520.035156 330.332031 C 521.421875 329.703125 521.972656 328.605469 521.019531 326.496094 L 514.339844 311.71875 L 518.835938 309.6875 Z M 505.285156 345.59375 L 550.246094 325.269531 L 529.921875 280.308594 L 484.960938 300.628906 Z M 505.285156 345.59375 " fill-opacity="1" fill-rule="evenodd"/></g></g></g></g><g clip-path="url(#3a9d036662)"><g clip-path="url(#ac278edde0)"><g clip-path="url(#90d239a752)"><g clip-path="url(#82034e1b61)"><path fill="#000000" d="M 320.402344 387.226562 C 316.445312 385.53125 314.695312 382.550781 314.503906 379.546875 L 318.835938 379.027344 C 319.109375 380.910156 319.828125 382.511719 321.929688 383.414062 C 323.695312 384.167969 325.199219 383.769531 325.722656 382.550781 C 326.503906 380.71875 324.367188 378.957031 322.960938 377.476562 C 320.445312 374.851562 319.109375 372.332031 320.59375 368.859375 C 321.964844 365.664062 325.441406 364.273438 329.25 365.90625 C 331.957031 367.066406 333.503906 368.84375 333.847656 371.90625 L 329.617188 372.617188 C 329.449219 370.996094 328.878906 370.140625 327.660156 369.617188 C 326.410156 369.082031 325.28125 369.535156 324.835938 370.570312 C 324.289062 371.847656 324.859375 372.707031 326.347656 374.28125 C 329.472656 377.5625 331.820312 380.09375 330.011719 384.316406 C 328.367188 388.152344 324.453125 388.964844 320.402344 387.226562 Z M 313.339844 376.597656 C 311.449219 381.015625 307.730469 382.183594 303.953125 380.566406 C 300.542969 379.105469 299.058594 376.925781 299.027344 374.226562 L 298.992188 374.210938 L 298.96875 374.199219 L 303.472656 373.261719 C 303.632812 374.734375 303.875 375.835938 305.335938 376.460938 C 306.738281 377.0625 307.917969 376.726562 308.828125 374.597656 L 315.214844 359.691406 L 319.75 361.632812 Z M 284.121094 375.890625 L 329.476562 395.324219 L 348.90625 349.96875 L 303.550781 330.535156 Z M 284.121094 375.890625 " fill-opacity="1" fill-rule="evenodd"/></g></g></g></g><g clip-path="url(#b9b066f883)"><g clip-path="url(#ebd68fbcc4)"><g clip-path="url(#02de17cfbe)"><g clip-path="url(#589fe7a487)"><path fill="#000000" d="M 159.828125 308.449219 C 155.945312 306.59375 154.316406 303.542969 154.246094 300.535156 L 158.597656 300.1875 C 158.792969 302.082031 159.445312 303.714844 161.507812 304.699219 C 163.242188 305.527344 164.761719 305.1875 165.332031 303.992188 C 166.191406 302.191406 164.125 300.34375 162.777344 298.808594 C 160.371094 296.082031 159.140625 293.511719 160.765625 290.105469 C 162.265625 286.964844 165.796875 285.71875 169.535156 287.5 C 172.191406 288.769531 173.664062 290.609375 173.882812 293.6875 L 169.628906 294.222656 C 169.523438 292.597656 168.988281 291.71875 167.792969 291.148438 C 166.566406 290.5625 165.417969 290.96875 164.933594 291.984375 C 164.335938 293.238281 164.871094 294.117188 166.292969 295.753906 C 169.285156 299.15625 171.523438 301.785156 169.546875 305.929688 C 167.75 309.695312 163.804688 310.347656 159.828125 308.449219 Z M 153.203125 297.542969 C 151.132812 301.875 147.371094 302.894531 143.664062 301.125 C 140.316406 299.527344 138.921875 297.289062 138.996094 294.589844 L 138.949219 294.566406 L 138.9375 294.5625 L 143.480469 293.808594 C 143.582031 295.285156 143.777344 296.394531 145.210938 297.078125 C 146.589844 297.734375 147.78125 297.449219 148.777344 295.359375 L 155.761719 280.722656 L 160.214844 282.847656 Z M 124.035156 295.648438 L 168.566406 316.902344 L 189.820312 272.375 L 145.289062 251.121094 Z M 124.035156 295.648438 " fill-opacity="1" fill-rule="evenodd"/></g></g></g></g><g clip-path="url(#3498b78315)"><g clip-path="url(#77fd597f85)"><g clip-path="url(#6d3a721621)"><g clip-path="url(#f18ef950a4)"><path fill="#000000" d="M 143.082031 168.753906 C 139.285156 170.785156 135.863281 170.292969 133.402344 168.566406 L 135.695312 164.855469 C 137.339844 165.816406 139.039062 166.257812 141.054688 165.179688 C 142.746094 164.273438 143.375 162.847656 142.746094 161.679688 C 141.804688 159.921875 139.09375 160.492188 137.058594 160.667969 C 133.4375 160.996094 130.636719 160.464844 128.851562 157.136719 C 127.210938 154.074219 128.292969 150.488281 131.945312 148.53125 C 134.542969 147.140625 136.894531 147.042969 139.503906 148.6875 L 137.417969 152.433594 C 136.046875 151.554688 135.019531 151.464844 133.851562 152.089844 C 132.65625 152.734375 132.304688 153.898438 132.835938 154.890625 C 133.492188 156.117188 134.515625 156.207031 136.675781 156.027344 C 141.191406 155.632812 144.632812 155.378906 146.804688 159.429688 C 148.777344 163.109375 146.964844 166.671875 143.082031 168.753906 Z M 130.367188 167.636719 C 132.636719 171.867188 131.230469 175.503906 127.609375 177.445312 C 124.339844 179.199219 121.707031 178.996094 119.578125 177.339844 L 119.523438 177.367188 L 121.601562 173.261719 C 122.855469 174.054688 123.863281 174.554688 125.265625 173.800781 C 126.609375 173.082031 127.082031 171.953125 125.988281 169.910156 L 118.328125 155.617188 L 122.679688 153.285156 Z M 111.578125 190.023438 L 155.066406 166.71875 L 131.761719 123.226562 L 88.269531 146.53125 Z M 111.578125 190.023438 " fill-opacity="1" fill-rule="evenodd"/></g></g></g></g><g clip-path="url(#9bb447eace)"><g clip-path="url(#ead032ed95)"><g clip-path="url(#68e049d953)"><g clip-path="url(#276a8a61bb)"><path fill="#000000" d="M 470.910156 658.128906 C 467.003906 659.941406 463.617188 659.25 461.253906 657.390625 L 463.757812 653.816406 C 465.34375 654.871094 467.015625 655.40625 469.089844 654.445312 C 470.832031 653.636719 471.539062 652.246094 470.980469 651.046875 C 470.140625 649.238281 467.398438 649.652344 465.359375 649.714844 C 461.726562 649.832031 458.957031 649.144531 457.367188 645.71875 C 455.902344 642.566406 457.191406 639.046875 460.945312 637.300781 C 463.617188 636.0625 465.972656 636.097656 468.484375 637.890625 L 466.1875 641.511719 C 464.867188 640.554688 463.851562 640.410156 462.648438 640.964844 C 461.414062 641.539062 460.996094 642.683594 461.472656 643.703125 C 462.058594 644.964844 463.074219 645.113281 465.242188 645.054688 C 469.773438 644.921875 473.222656 644.867188 475.160156 649.03125 C 476.917969 652.816406 474.90625 656.269531 470.910156 658.128906 Z M 458.28125 656.285156 C 460.304688 660.640625 458.691406 664.191406 454.964844 665.921875 C 451.601562 667.484375 448.988281 667.132812 446.957031 665.355469 L 446.921875 665.371094 L 446.898438 665.382812 L 449.210938 661.402344 C 450.414062 662.265625 451.394531 662.820312 452.835938 662.152344 C 454.21875 661.507812 454.753906 660.40625 453.78125 658.308594 L 446.949219 643.597656 L 451.421875 641.519531 Z M 438.242188 677.566406 L 482.992188 656.78125 L 462.207031 612.03125 L 417.457031 632.816406 Z M 438.242188 677.566406 " fill-opacity="1" fill-rule="evenodd"/></g></g></g></g><g clip-path="url(#3c169bfa60)"><g clip-path="url(#a63c2f9ea4)"><g clip-path="url(#4df6f58233)"><g clip-path="url(#aaad090108)"><path fill="#000000" d="M 283.96875 591.582031 C 280.429688 589.132812 279.308594 585.863281 279.71875 582.882812 L 284.066406 583.234375 C 283.960938 585.132812 284.34375 586.847656 286.226562 588.148438 C 287.804688 589.242188 289.359375 589.148438 290.113281 588.058594 C 291.246094 586.421875 289.503906 584.265625 288.417969 582.539062 C 286.476562 579.460938 285.667969 576.726562 287.816406 573.621094 C 289.796875 570.765625 293.480469 570.09375 296.886719 572.449219 C 299.308594 574.125 300.472656 576.179688 300.195312 579.25 L 295.910156 579.101562 C 296.066406 577.480469 295.679688 576.527344 294.589844 575.773438 C 293.472656 575 292.273438 575.21875 291.632812 576.144531 C 290.839844 577.285156 291.230469 578.238281 292.375 580.078125 C 294.785156 583.917969 296.578125 586.867188 293.964844 590.644531 C 291.589844 594.078125 287.59375 594.089844 283.96875 591.582031 Z M 279.167969 579.761719 C 276.433594 583.710938 272.554688 584.113281 269.179688 581.777344 C 266.125 579.664062 265.105469 577.234375 265.609375 574.582031 L 265.582031 574.5625 L 265.566406 574.550781 L 265.558594 574.546875 L 270.160156 574.523438 C 270.023438 576 270.042969 577.125 271.351562 578.03125 C 272.605469 578.898438 273.828125 578.804688 275.144531 576.898438 L 284.371094 563.5625 L 288.429688 566.371094 Z M 250.671875 573.246094 L 291.246094 601.324219 L 319.324219 560.75 L 278.75 532.671875 Z M 250.671875 573.246094 " fill-opacity="1" fill-rule="evenodd"/></g></g></g></g><g clip-path="url(#7546552101)"><g clip-path="url(#27c3cdcf37)"><g clip-path="url(#9da4847d58)"><g clip-path="url(#0381c2134a)"><path fill="#000000" d="M 668.457031 483.636719 C 664.8125 485.925781 661.363281 485.664062 658.789062 484.109375 L 660.824219 480.253906 C 662.53125 481.101562 664.253906 481.425781 666.191406 480.210938 C 667.820312 479.191406 668.347656 477.726562 667.644531 476.601562 C 666.585938 474.914062 663.917969 475.667969 661.902344 475.984375 C 658.308594 476.554688 655.480469 476.214844 653.472656 473.015625 C 651.625 470.070312 652.464844 466.417969 655.976562 464.21875 C 658.46875 462.65625 660.8125 462.398438 663.527344 463.859375 L 661.699219 467.742188 C 660.269531 466.957031 659.242188 466.9375 658.121094 467.640625 C 656.96875 468.363281 656.695312 469.550781 657.292969 470.503906 C 658.03125 471.683594 659.0625 471.703125 661.203125 471.375 C 665.683594 470.675781 669.101562 470.191406 671.539062 474.085938 C 673.757812 477.621094 672.191406 481.296875 668.457031 483.636719 Z M 655.699219 483.386719 C 658.25 487.457031 657.09375 491.179688 653.613281 493.359375 C 650.46875 495.332031 647.832031 495.308594 645.59375 493.800781 L 645.5625 493.820312 L 645.539062 493.832031 L 647.335938 489.597656 C 648.636719 490.304688 649.679688 490.730469 651.027344 489.886719 C 652.316406 489.078125 652.714844 487.917969 651.484375 485.953125 L 642.871094 472.210938 L 647.050781 469.59375 Z M 638.472656 507 L 680.277344 480.792969 L 654.074219 438.984375 L 612.265625 465.191406 Z M 638.472656 507 " fill-opacity="1" fill-rule="evenodd"/></g></g></g></g><g clip-path="url(#ff39d73ada)"><g clip-path="url(#07465c7451)"><g clip-path="url(#5f9acd7099)"><g clip-path="url(#d46609c7dd)"><path fill="#000000" d="M 337.539062 185.257812 C 333.753906 187.308594 330.328125 186.832031 327.859375 185.121094 L 330.132812 181.398438 C 331.78125 182.351562 333.484375 182.785156 335.492188 181.695312 C 337.179688 180.777344 337.800781 179.351562 337.167969 178.1875 C 336.21875 176.433594 333.507812 177.015625 331.476562 177.203125 C 327.855469 177.546875 325.050781 177.035156 323.25 173.714844 C 321.59375 170.660156 322.660156 167.066406 326.300781 165.09375 C 328.890625 163.6875 331.246094 163.578125 333.863281 165.210938 L 331.792969 168.96875 C 330.417969 168.097656 329.390625 168.011719 328.226562 168.644531 C 327.03125 169.292969 326.6875 170.460938 327.222656 171.449219 C 327.886719 172.671875 328.910156 172.753906 331.070312 172.5625 C 335.582031 172.148438 339.023438 171.878906 341.214844 175.917969 C 343.203125 179.585938 341.414062 183.15625 337.539062 185.257812 Z M 324.820312 184.203125 C 327.109375 188.425781 325.722656 192.070312 322.109375 194.027344 C 318.847656 195.796875 316.21875 195.609375 314.082031 193.960938 L 314.046875 193.980469 L 314.035156 193.988281 L 314.023438 193.992188 L 316.082031 189.875 C 317.339844 190.664062 318.351562 191.15625 319.75 190.398438 C 321.089844 189.671875 321.558594 188.539062 320.453125 186.5 L 312.722656 172.246094 L 317.058594 169.894531 Z M 306.140625 206.6875 L 349.515625 183.164062 L 325.992188 139.789062 L 282.617188 163.316406 Z M 306.140625 206.6875 " fill-opacity="1" fill-rule="evenodd"/></g></g></g></g><g clip-path="url(#382bd62e1d)"><g clip-path="url(#df052287f3)"><g clip-path="url(#c0b77750c9)"><g clip-path="url(#029cdba242)"><path fill="#000000" d="M 703.121094 343.0625 C 699.207031 344.851562 695.824219 344.144531 693.472656 342.265625 L 695.996094 338.707031 C 697.574219 339.773438 699.242188 340.320312 701.324219 339.367188 C 703.070312 338.570312 703.785156 337.1875 703.234375 335.980469 C 702.40625 334.167969 699.660156 334.566406 697.621094 334.617188 C 693.984375 334.710938 691.222656 334.007812 689.652344 330.574219 C 688.207031 327.414062 689.515625 323.902344 693.28125 322.179688 C 695.960938 320.953125 698.316406 321.003906 700.816406 322.808594 L 698.496094 326.421875 C 697.183594 325.457031 696.167969 325.300781 694.960938 325.851562 C 693.726562 326.417969 693.300781 327.558594 693.769531 328.582031 C 694.347656 329.847656 695.363281 330.003906 697.53125 329.957031 C 702.0625 329.847656 705.515625 329.816406 707.425781 333.992188 C 709.160156 337.789062 707.128906 341.230469 703.121094 343.0625 Z M 690.503906 341.148438 C 692.503906 345.515625 690.867188 349.054688 687.132812 350.761719 C 683.757812 352.304688 681.148438 351.941406 679.128906 350.152344 L 679.09375 350.167969 L 679.070312 350.179688 L 681.402344 346.210938 C 682.601562 347.082031 683.578125 347.640625 685.023438 346.980469 C 686.410156 346.347656 686.953125 345.25 685.992188 343.140625 L 679.246094 328.394531 L 683.734375 326.339844 Z M 670.339844 362.308594 L 715.214844 341.785156 L 694.691406 296.914062 L 649.820312 317.4375 Z M 670.339844 362.308594 " fill-opacity="1" fill-rule="evenodd"/></g></g></g></g><g clip-path="url(#43febc0cc8)"><g clip-path="url(#d48cd52f71)"><g clip-path="url(#cc5012850c)"><g clip-path="url(#43500425a4)"><path fill="#000000" d="M 700.402344 186.757812 C 696.804688 184.097656 695.746094 180.660156 696.269531 177.578125 L 700.777344 178.082031 C 700.605469 180.054688 700.949219 181.847656 702.859375 183.261719 C 704.464844 184.449219 706.085938 184.40625 706.902344 183.296875 C 708.136719 181.628906 706.394531 179.332031 705.320312 177.5 C 703.402344 174.242188 702.652344 171.371094 704.988281 168.214844 C 707.136719 165.304688 710.988281 164.730469 714.453125 167.289062 C 716.917969 169.109375 718.058594 171.28125 717.671875 174.464844 L 713.21875 174.171875 C 713.4375 172.492188 713.0625 171.488281 711.957031 170.667969 C 710.820312 169.828125 709.566406 170.015625 708.871094 170.957031 C 708.011719 172.121094 708.382812 173.125 709.511719 175.074219 C 711.894531 179.144531 713.664062 182.265625 710.824219 186.109375 C 708.242188 189.597656 704.089844 189.484375 700.402344 186.757812 Z M 695.792969 174.3125 C 692.824219 178.328125 688.78125 178.625 685.347656 176.085938 C 682.242188 173.792969 681.261719 171.230469 681.871094 168.492188 L 681.839844 168.46875 L 681.828125 168.457031 L 681.820312 168.453125 L 686.601562 168.578125 C 686.414062 170.109375 686.398438 171.28125 687.726562 172.261719 C 689 173.203125 690.273438 173.148438 691.707031 171.210938 L 701.730469 157.648438 L 705.859375 160.695312 Z M 666.386719 166.617188 L 707.652344 197.121094 L 738.15625 155.855469 L 696.886719 125.351562 Z M 666.386719 166.617188 " fill-opacity="1" fill-rule="evenodd"/></g></g></g></g><g clip-path="url(#5c85d1de43)"><g clip-path="url(#1f5de94eaf)"><g clip-path="url(#875b1b567f)"><g clip-path="url(#f4821273e8)"><path fill="#000000" d="M 498.992188 483.289062 C 494.917969 484.683594 491.621094 483.644531 489.46875 481.542969 L 492.332031 478.253906 C 493.796875 479.464844 495.402344 480.175781 497.566406 479.433594 C 499.382812 478.8125 500.234375 477.507812 499.804688 476.253906 C 499.160156 474.371094 496.390625 474.492188 494.351562 474.339844 C 490.726562 474.078125 488.046875 473.101562 486.824219 469.53125 C 485.699219 466.242188 487.347656 462.875 491.265625 461.535156 C 494.054688 460.582031 496.394531 460.863281 498.703125 462.910156 L 496.039062 466.273438 C 494.824219 465.183594 493.828125 464.929688 492.574219 465.355469 C 491.289062 465.796875 490.753906 466.890625 491.117188 467.957031 C 491.566406 469.273438 492.5625 469.527344 494.726562 469.695312 C 499.246094 470.035156 502.683594 470.34375 504.171875 474.691406 C 505.523438 478.640625 503.160156 481.863281 498.992188 483.289062 Z M 486.625 480.136719 C 488.179688 484.679688 486.203125 488.039062 482.316406 489.371094 C 478.808594 490.570312 476.246094 489.949219 474.410156 487.96875 L 474.375 487.980469 L 474.359375 487.984375 L 474.351562 487.988281 L 477.066406 484.273438 C 478.171875 485.257812 479.089844 485.910156 480.59375 485.398438 C 482.035156 484.902344 482.6875 483.863281 481.9375 481.671875 L 476.683594 466.328125 L 481.355469 464.730469 Z M 464.464844 499.195312 L 511.148438 483.21875 L 495.171875 436.535156 L 448.488281 452.511719 Z M 464.464844 499.195312 " fill-opacity="1" fill-rule="evenodd"/></g></g></g></g><g clip-path="url(#f06f8848cd)"><g clip-path="url(#eeead740c7)"><g clip-path="url(#c48f8c57a6)"><g clip-path="url(#21c4c265c8)"><path fill="#000000" d="M 136.914062 647.898438 C 132.839844 649.292969 129.542969 648.253906 127.390625 646.152344 L 130.253906 642.863281 C 131.71875 644.078125 133.324219 644.785156 135.488281 644.046875 C 137.304688 643.425781 138.15625 642.117188 137.726562 640.863281 C 137.082031 638.980469 134.3125 639.101562 132.273438 638.949219 C 128.648438 638.6875 125.96875 637.710938 124.746094 634.140625 C 123.621094 630.851562 125.269531 627.484375 129.1875 626.144531 C 131.976562 625.191406 134.316406 625.476562 136.625 627.519531 L 133.960938 630.882812 C 132.746094 629.792969 131.75 629.539062 130.496094 629.96875 C 129.210938 630.40625 128.675781 631.5 129.039062 632.566406 C 129.488281 633.882812 130.488281 634.136719 132.648438 634.308594 C 137.167969 634.644531 140.605469 634.953125 142.09375 639.300781 C 143.445312 643.25 141.082031 646.472656 136.914062 647.898438 Z M 124.546875 644.746094 C 126.101562 649.289062 124.125 652.648438 120.238281 653.980469 C 116.730469 655.179688 114.167969 654.558594 112.335938 652.578125 L 112.300781 652.589844 L 112.28125 652.59375 L 112.273438 652.597656 L 114.988281 648.882812 C 116.09375 649.867188 117.011719 650.519531 118.515625 650.007812 C 119.957031 649.511719 120.609375 648.472656 119.859375 646.28125 L 114.605469 630.9375 L 119.277344 629.339844 Z M 102.386719 663.804688 L 149.070312 647.828125 L 133.09375 601.144531 L 86.410156 617.121094 Z M 102.386719 663.804688 " fill-opacity="1" fill-rule="evenodd"/></g></g></g></g><g clip-path="url(#81f3ec0872)"><g clip-path="url(#289e02aa32)"><g clip-path="url(#785c41c9c1)"><g clip-path="url(#805d2452aa)"><path fill="#000000" d="M 136.914062 488.386719 C 132.839844 489.78125 129.542969 488.742188 127.390625 486.640625 L 130.253906 483.351562 C 131.71875 484.566406 133.324219 485.273438 135.488281 484.535156 C 137.304688 483.910156 138.15625 482.605469 137.726562 481.351562 C 137.082031 479.46875 134.3125 479.589844 132.273438 479.4375 C 128.648438 479.175781 125.96875 478.199219 124.746094 474.628906 C 123.621094 471.339844 125.269531 467.972656 129.1875 466.632812 C 131.976562 465.679688 134.316406 465.960938 136.625 468.007812 L 133.960938 471.371094 C 132.746094 470.28125 131.75 470.027344 130.496094 470.457031 C 129.210938 470.894531 128.675781 471.988281 129.039062 473.054688 C 129.488281 474.371094 130.488281 474.625 132.648438 474.792969 C 137.167969 475.132812 140.605469 475.441406 142.09375 479.789062 C 143.445312 483.738281 141.082031 486.960938 136.914062 488.386719 Z M 124.546875 485.234375 C 126.101562 489.777344 124.125 493.136719 120.238281 494.46875 C 116.730469 495.667969 114.167969 495.046875 112.335938 493.066406 L 112.300781 493.078125 L 112.28125 493.082031 L 112.273438 493.085938 L 114.988281 489.371094 C 116.09375 490.355469 117.011719 491.007812 118.515625 490.496094 C 119.957031 490 120.609375 488.960938 119.859375 486.769531 L 114.605469 471.425781 L 119.277344 469.828125 Z M 102.386719 504.292969 L 149.070312 488.316406 L 133.09375 441.632812 L 86.410156 457.609375 Z M 102.386719 504.292969 " fill-opacity="1" fill-rule="evenodd"/></g></g></g></g><g clip-path="url(#c1fdcac0aa)"><g clip-path="url(#6ad910db69)"><g clip-path="url(#a604df5408)"><g clip-path="url(#18f003630e)"><path fill="#000000" d="M 730.238281 662.945312 C 726.164062 664.339844 722.867188 663.296875 720.714844 661.199219 L 723.578125 657.90625 C 725.042969 659.121094 726.648438 659.832031 728.8125 659.089844 C 730.628906 658.46875 731.480469 657.164062 731.050781 655.910156 C 730.40625 654.023438 727.636719 654.148438 725.597656 653.996094 C 721.972656 653.730469 719.292969 652.757812 718.070312 649.183594 C 716.945312 645.894531 718.59375 642.53125 722.511719 641.191406 C 725.300781 640.234375 727.640625 640.519531 729.949219 642.5625 L 727.285156 645.925781 C 726.070312 644.835938 725.074219 644.582031 723.820312 645.011719 C 722.535156 645.453125 722 646.546875 722.363281 647.609375 C 722.8125 648.925781 723.8125 649.179688 725.972656 649.351562 C 730.492188 649.691406 733.929688 650 735.417969 654.34375 C 736.769531 658.292969 734.40625 661.519531 730.238281 662.945312 Z M 717.871094 659.789062 C 719.425781 664.335938 717.449219 667.695312 713.566406 669.023438 C 710.054688 670.226562 707.492188 669.601562 705.660156 667.625 L 705.625 667.636719 L 705.605469 667.640625 L 705.597656 667.644531 L 708.3125 663.925781 C 709.417969 664.914062 710.335938 665.566406 711.839844 665.050781 C 713.28125 664.558594 713.933594 663.519531 713.183594 661.328125 L 707.929688 645.984375 L 712.601562 644.386719 Z M 695.710938 678.851562 L 742.394531 662.871094 L 726.417969 616.1875 L 679.734375 632.167969 Z M 695.710938 678.851562 " fill-opacity="1" fill-rule="evenodd"/></g></g></g></g></svg>