<svg xmlns="http://www.w3.org/2000/svg" xmlns:xlink="http://www.w3.org/1999/xlink" width="944" zoomAndPan="magnify" viewBox="0 0 708.75 567.000005" height="755" preserveAspectRatio="xMidYMid meet" version="1.0"><defs><clipPath id="efd04eb9bd"><path d="M 79 69 L 120 69 L 120 111 L 79 111 Z M 79 69 " clip-rule="nonzero"/></clipPath><clipPath id="8dde18e8e5"><path d="M 87.761719 47.050781 L 142.648438 82.164062 L 107.535156 137.050781 L 52.648438 101.9375 Z M 87.761719 47.050781 " clip-rule="nonzero"/></clipPath><clipPath id="886cce271e"><path d="M 87.761719 47.050781 L 142.648438 82.164062 L 107.535156 137.050781 L 52.648438 101.9375 Z M 87.761719 47.050781 " clip-rule="nonzero"/></clipPath><clipPath id="8a8547b360"><path d="M 87.761719 47.050781 L 142.648438 82.164062 L 107.535156 137.050781 L 52.648438 101.9375 Z M 87.761719 47.050781 " clip-rule="nonzero"/></clipPath><clipPath id="6c1c37095a"><path d="M 110 358 L 151 358 L 151 400 L 110 400 Z M 110 358 " clip-rule="nonzero"/></clipPath><clipPath id="5664749f38"><path d="M 118.515625 335.957031 L 173.402344 371.070312 L 138.289062 425.957031 L 83.402344 390.847656 Z M 118.515625 335.957031 " clip-rule="nonzero"/></clipPath><clipPath id="703fd8b31a"><path d="M 118.515625 335.957031 L 173.402344 371.070312 L 138.289062 425.957031 L 83.402344 390.847656 Z M 118.515625 335.957031 " clip-rule="nonzero"/></clipPath><clipPath id="452f4cdb66"><path d="M 118.515625 335.957031 L 173.402344 371.070312 L 138.289062 425.957031 L 83.402344 390.847656 Z M 118.515625 335.957031 " clip-rule="nonzero"/></clipPath><clipPath id="68dddab697"><path d="M 278 34 L 319 34 L 319 75 L 278 75 Z M 278 34 " clip-rule="nonzero"/></clipPath><clipPath id="a23e4b2710"><path d="M 286.527344 11.648438 L 341.414062 46.761719 L 306.300781 101.648438 L 251.414062 66.539062 Z M 286.527344 11.648438 " clip-rule="nonzero"/></clipPath><clipPath id="2d72ac80b3"><path d="M 286.527344 11.648438 L 341.414062 46.761719 L 306.300781 101.648438 L 251.414062 66.539062 Z M 286.527344 11.648438 " clip-rule="nonzero"/></clipPath><clipPath id="ed43b9e6b0"><path d="M 286.527344 11.648438 L 341.414062 46.761719 L 306.300781 101.648438 L 251.414062 66.539062 Z M 286.527344 11.648438 " clip-rule="nonzero"/></clipPath><clipPath id="299f33470d"><path d="M 414 173 L 455 173 L 455 215 L 414 215 Z M 414 173 " clip-rule="nonzero"/></clipPath><clipPath id="d46741c48b"><path d="M 422.375 151.503906 L 477.261719 186.613281 L 442.148438 241.503906 L 387.261719 206.390625 Z M 422.375 151.503906 " clip-rule="nonzero"/></clipPath><clipPath id="b3cdf917dc"><path d="M 422.375 151.503906 L 477.261719 186.613281 L 442.148438 241.503906 L 387.261719 206.390625 Z M 422.375 151.503906 " clip-rule="nonzero"/></clipPath><clipPath id="a6e08de8f4"><path d="M 422.375 151.503906 L 477.261719 186.613281 L 442.148438 241.503906 L 387.261719 206.390625 Z M 422.375 151.503906 " clip-rule="nonzero"/></clipPath><clipPath id="f75d1d29e6"><path d="M 547 69 L 587 69 L 587 111 L 547 111 Z M 547 69 " clip-rule="nonzero"/></clipPath><clipPath id="56c7256e33"><path d="M 555.042969 47.050781 L 609.933594 82.164062 L 574.820312 137.050781 L 519.929688 101.9375 Z M 555.042969 47.050781 " clip-rule="nonzero"/></clipPath><clipPath id="f583270805"><path d="M 555.042969 47.050781 L 609.933594 82.164062 L 574.820312 137.050781 L 519.929688 101.9375 Z M 555.042969 47.050781 " clip-rule="nonzero"/></clipPath><clipPath id="557fd44afa"><path d="M 555.042969 47.050781 L 609.933594 82.164062 L 574.820312 137.050781 L 519.929688 101.9375 Z M 555.042969 47.050781 " clip-rule="nonzero"/></clipPath><clipPath id="013687c322"><path d="M 60 230 L 102 230 L 102 272 L 60 272 Z M 60 230 " clip-rule="nonzero"/></clipPath><clipPath id="a624b6417e"><path d="M 37.515625 249.625 L 86.800781 207.003906 L 129.421875 256.289062 L 80.136719 298.910156 Z M 37.515625 249.625 " clip-rule="nonzero"/></clipPath><clipPath id="d871c22e8f"><path d="M 37.515625 249.625 L 86.800781 207.003906 L 129.421875 256.289062 L 80.136719 298.910156 Z M 37.515625 249.625 " clip-rule="nonzero"/></clipPath><clipPath id="6afba7cd9e"><path d="M 37.515625 249.625 L 86.800781 207.003906 L 129.421875 256.289062 L 80.136719 298.910156 Z M 37.515625 249.625 " clip-rule="nonzero"/></clipPath><clipPath id="8a89939b81"><path d="M 534 186 L 575 186 L 575 227 L 534 227 Z M 534 186 " clip-rule="nonzero"/></clipPath><clipPath id="af7351e7c5"><path d="M 542.203125 163.636719 L 597.09375 198.75 L 561.980469 253.640625 L 507.09375 218.527344 Z M 542.203125 163.636719 " clip-rule="nonzero"/></clipPath><clipPath id="300e9d4cae"><path d="M 542.203125 163.636719 L 597.09375 198.75 L 561.980469 253.640625 L 507.09375 218.527344 Z M 542.203125 163.636719 " clip-rule="nonzero"/></clipPath><clipPath id="f253d92819"><path d="M 542.203125 163.636719 L 597.09375 198.75 L 561.980469 253.640625 L 507.09375 218.527344 Z M 542.203125 163.636719 " clip-rule="nonzero"/></clipPath><clipPath id="67a250cabf"><path d="M 444 487 L 485 487 L 485 529 L 444 529 Z M 444 487 " clip-rule="nonzero"/></clipPath><clipPath id="cbc7a58040"><path d="M 452.273438 465.507812 L 507.164062 500.617188 L 472.050781 555.507812 L 417.164062 520.394531 Z M 452.273438 465.507812 " clip-rule="nonzero"/></clipPath><clipPath id="ba67ef49cf"><path d="M 452.273438 465.507812 L 507.164062 500.617188 L 472.050781 555.507812 L 417.164062 520.394531 Z M 452.273438 465.507812 " clip-rule="nonzero"/></clipPath><clipPath id="6053cd6891"><path d="M 452.273438 465.507812 L 507.164062 500.617188 L 472.050781 555.507812 L 417.164062 520.394531 Z M 452.273438 465.507812 " clip-rule="nonzero"/></clipPath><clipPath id="0bf6bdb3cc"><path d="M 182 271 L 224 271 L 224 313 L 182 313 Z M 182 271 " clip-rule="nonzero"/></clipPath><clipPath id="3cb59bee50"><path d="M 159.609375 290.964844 L 208.898438 248.34375 L 251.515625 297.628906 L 202.230469 340.25 Z M 159.609375 290.964844 " clip-rule="nonzero"/></clipPath><clipPath id="23b23066ee"><path d="M 159.609375 290.964844 L 208.898438 248.34375 L 251.515625 297.628906 L 202.230469 340.25 Z M 159.609375 290.964844 " clip-rule="nonzero"/></clipPath><clipPath id="4d98af194d"><path d="M 159.609375 290.964844 L 208.898438 248.34375 L 251.515625 297.628906 L 202.230469 340.25 Z M 159.609375 290.964844 " clip-rule="nonzero"/></clipPath><clipPath id="841589a383"><path d="M 364 306 L 406 306 L 406 348 L 364 348 Z M 364 306 " clip-rule="nonzero"/></clipPath><clipPath id="06043eb641"><path d="M 341.375 325.648438 L 390.660156 283.027344 L 433.28125 332.316406 L 383.996094 374.933594 Z M 341.375 325.648438 " clip-rule="nonzero"/></clipPath><clipPath id="5fbf48ba6c"><path d="M 341.375 325.648438 L 390.660156 283.027344 L 433.28125 332.316406 L 383.996094 374.933594 Z M 341.375 325.648438 " clip-rule="nonzero"/></clipPath><clipPath id="54973c3155"><path d="M 341.375 325.648438 L 390.660156 283.027344 L 433.28125 332.316406 L 383.996094 374.933594 Z M 341.375 325.648438 " clip-rule="nonzero"/></clipPath><clipPath id="e7d7b10bb9"><path d="M 250 368 L 292 368 L 292 410 L 250 410 Z M 250 368 " clip-rule="nonzero"/></clipPath><clipPath id="b4290c8fe1"><path d="M 227.4375 387.734375 L 276.726562 345.113281 L 319.34375 394.402344 L 270.058594 437.019531 Z M 227.4375 387.734375 " clip-rule="nonzero"/></clipPath><clipPath id="4a84dae44a"><path d="M 227.4375 387.734375 L 276.726562 345.113281 L 319.34375 394.402344 L 270.058594 437.019531 Z M 227.4375 387.734375 " clip-rule="nonzero"/></clipPath><clipPath id="5e177f2667"><path d="M 227.4375 387.734375 L 276.726562 345.113281 L 319.34375 394.402344 L 270.058594 437.019531 Z M 227.4375 387.734375 " clip-rule="nonzero"/></clipPath><clipPath id="c6f52f6b34"><path d="M 273 192 L 315 192 L 315 235 L 273 235 Z M 273 192 " clip-rule="nonzero"/></clipPath><clipPath id="de01316a0f"><path d="M 250.492188 212.542969 L 299.777344 169.921875 L 342.398438 219.210938 L 293.113281 261.828125 Z M 250.492188 212.542969 " clip-rule="nonzero"/></clipPath><clipPath id="29a35a6e94"><path d="M 250.492188 212.542969 L 299.777344 169.921875 L 342.398438 219.210938 L 293.113281 261.828125 Z M 250.492188 212.542969 " clip-rule="nonzero"/></clipPath><clipPath id="8daa8584c9"><path d="M 250.492188 212.542969 L 299.777344 169.921875 L 342.398438 219.210938 L 293.113281 261.828125 Z M 250.492188 212.542969 " clip-rule="nonzero"/></clipPath><clipPath id="173ea12a53"><path d="M 214 486 L 256 486 L 256 529 L 214 529 Z M 214 486 " clip-rule="nonzero"/></clipPath><clipPath id="ec9781cc01"><path d="M 191.152344 506.183594 L 240.4375 463.5625 L 283.058594 512.851562 L 233.769531 555.46875 Z M 191.152344 506.183594 " clip-rule="nonzero"/></clipPath><clipPath id="faa8d32aab"><path d="M 191.152344 506.183594 L 240.4375 463.5625 L 283.058594 512.851562 L 233.769531 555.46875 Z M 191.152344 506.183594 " clip-rule="nonzero"/></clipPath><clipPath id="8f49e28ff2"><path d="M 191.152344 506.183594 L 240.4375 463.5625 L 283.058594 512.851562 L 233.769531 555.46875 Z M 191.152344 506.183594 " clip-rule="nonzero"/></clipPath><clipPath id="18b4035d28"><path d="M 51 486 L 93 486 L 93 528 L 51 528 Z M 51 486 " clip-rule="nonzero"/></clipPath><clipPath id="6f75b0b130"><path d="M 28.101562 505.917969 L 77.386719 463.296875 L 120.007812 512.582031 L 70.71875 555.203125 Z M 28.101562 505.917969 " clip-rule="nonzero"/></clipPath><clipPath id="8cef185af2"><path d="M 28.101562 505.917969 L 77.386719 463.296875 L 120.007812 512.582031 L 70.71875 555.203125 Z M 28.101562 505.917969 " clip-rule="nonzero"/></clipPath><clipPath id="913580abf3"><path d="M 28.101562 505.917969 L 77.386719 463.296875 L 120.007812 512.582031 L 70.71875 555.203125 Z M 28.101562 505.917969 " clip-rule="nonzero"/></clipPath><clipPath id="73967fd040"><path d="M 611 238 L 653 238 L 653 281 L 611 281 Z M 611 238 " clip-rule="nonzero"/></clipPath><clipPath id="3c0ebe572d"><path d="M 587.953125 258.460938 L 637.242188 215.839844 L 679.859375 265.128906 L 630.574219 307.746094 Z M 587.953125 258.460938 " clip-rule="nonzero"/></clipPath><clipPath id="3882bba7f4"><path d="M 587.953125 258.460938 L 637.242188 215.839844 L 679.859375 265.128906 L 630.574219 307.746094 Z M 587.953125 258.460938 " clip-rule="nonzero"/></clipPath><clipPath id="ba5caf64ac"><path d="M 587.953125 258.460938 L 637.242188 215.839844 L 679.859375 265.128906 L 630.574219 307.746094 Z M 587.953125 258.460938 " clip-rule="nonzero"/></clipPath><clipPath id="d20fdb5c13"><path d="M 168 127 L 210 127 L 210 170 L 168 170 Z M 168 127 " clip-rule="nonzero"/></clipPath><clipPath id="2fa4428bd6"><path d="M 145.234375 147.214844 L 194.519531 104.59375 L 237.140625 153.882812 L 187.855469 196.5 Z M 145.234375 147.214844 " clip-rule="nonzero"/></clipPath><clipPath id="b8542cde2b"><path d="M 145.234375 147.214844 L 194.519531 104.59375 L 237.140625 153.882812 L 187.855469 196.5 Z M 145.234375 147.214844 " clip-rule="nonzero"/></clipPath><clipPath id="c3cd7696e6"><path d="M 145.234375 147.214844 L 194.519531 104.59375 L 237.140625 153.882812 L 187.855469 196.5 Z M 145.234375 147.214844 " clip-rule="nonzero"/></clipPath><clipPath id="135f08d286"><path d="M 582 480 L 625 480 L 625 523 L 582 523 Z M 582 480 " clip-rule="nonzero"/></clipPath><clipPath id="588e4e89f5"><path d="M 559.714844 500.414062 L 609.003906 457.796875 L 651.621094 507.082031 L 602.335938 549.703125 Z M 559.714844 500.414062 " clip-rule="nonzero"/></clipPath><clipPath id="5e45eb5b2a"><path d="M 559.714844 500.414062 L 609.003906 457.796875 L 651.621094 507.082031 L 602.335938 549.703125 Z M 559.714844 500.414062 " clip-rule="nonzero"/></clipPath><clipPath id="7b862da8be"><path d="M 559.714844 500.414062 L 609.003906 457.796875 L 651.621094 507.082031 L 602.335938 549.703125 Z M 559.714844 500.414062 " clip-rule="nonzero"/></clipPath><clipPath id="8b3a22cf73"><path d="M 491 322 L 533 322 L 533 364 L 491 364 Z M 491 322 " clip-rule="nonzero"/></clipPath><clipPath id="88c402a5c2"><path d="M 468.410156 341.816406 L 517.695312 299.199219 L 560.316406 348.484375 L 511.03125 391.105469 Z M 468.410156 341.816406 " clip-rule="nonzero"/></clipPath><clipPath id="e0f537ac20"><path d="M 468.410156 341.816406 L 517.695312 299.199219 L 560.316406 348.484375 L 511.03125 391.105469 Z M 468.410156 341.816406 " clip-rule="nonzero"/></clipPath><clipPath id="c0b391acf2"><path d="M 468.410156 341.816406 L 517.695312 299.199219 L 560.316406 348.484375 L 511.03125 391.105469 Z M 468.410156 341.816406 " clip-rule="nonzero"/></clipPath><clipPath id="928aa7d338"><path d="M 421 56 L 463 56 L 463 98 L 421 98 Z M 421 56 " clip-rule="nonzero"/></clipPath><clipPath id="01b9b0d640"><path d="M 397.941406 75.746094 L 447.226562 33.125 L 489.847656 82.410156 L 440.558594 125.03125 Z M 397.941406 75.746094 " clip-rule="nonzero"/></clipPath><clipPath id="a143d7c7a0"><path d="M 397.941406 75.746094 L 447.226562 33.125 L 489.847656 82.410156 L 440.558594 125.03125 Z M 397.941406 75.746094 " clip-rule="nonzero"/></clipPath><clipPath id="830992d56d"><path d="M 397.941406 75.746094 L 447.226562 33.125 L 489.847656 82.410156 L 440.558594 125.03125 Z M 397.941406 75.746094 " clip-rule="nonzero"/></clipPath><clipPath id="00677acfbb"><path d="M 375 434 L 417 434 L 417 477 L 375 477 Z M 375 434 " clip-rule="nonzero"/></clipPath><clipPath id="4cfc198a9e"><path d="M 352.023438 454.5 L 401.308594 411.878906 L 443.929688 461.164062 L 394.644531 503.785156 Z M 352.023438 454.5 " clip-rule="nonzero"/></clipPath><clipPath id="88091122e2"><path d="M 352.023438 454.5 L 401.308594 411.878906 L 443.929688 461.164062 L 394.644531 503.785156 Z M 352.023438 454.5 " clip-rule="nonzero"/></clipPath><clipPath id="7c25586d6c"><path d="M 352.023438 454.5 L 401.308594 411.878906 L 443.929688 461.164062 L 394.644531 503.785156 Z M 352.023438 454.5 " clip-rule="nonzero"/></clipPath></defs><g clip-path="url(#efd04eb9bd)"><g clip-path="url(#8dde18e8e5)"><g clip-path="url(#886cce271e)"><g clip-path="url(#8a8547b360)"><path fill="#000000" d="M 119.683594 85.832031 L 100.632812 110.324219 L 88.425781 106.464844 L 79.808594 97.003906 L 94.054688 69.4375 Z M 111.457031 88.027344 L 103.476562 82.921875 L 95.351562 77.722656 L 93.730469 81.117188 L 101.464844 86.0625 L 101.898438 86.339844 L 101.347656 86.246094 L 91.910156 84.582031 L 90.195312 87.8125 L 97.382812 92.445312 L 101.238281 94.925781 L 98.367188 98.863281 L 94.105469 97.570312 L 94.105469 97.566406 L 94.070312 97.554688 L 91.144531 94.441406 L 92.558594 91.765625 L 92.546875 91.757812 L 89.308594 89.683594 L 89.296875 89.679688 L 86.582031 94.859375 L 91.90625 101.003906 L 91.910156 101 L 91.917969 101.011719 L 99.671875 103.28125 L 106.757812 94.078125 L 99.363281 89.347656 L 99.34375 89.335938 L 99.367188 89.339844 L 109.128906 90.964844 Z M 111.457031 88.027344 " fill-opacity="1" fill-rule="nonzero"/></g></g></g></g><g clip-path="url(#6c1c37095a)"><g clip-path="url(#5664749f38)"><g clip-path="url(#703fd8b31a)"><g clip-path="url(#452f4cdb66)"><path fill="#000000" d="M 150.4375 374.738281 L 131.382812 399.230469 L 119.179688 395.375 L 110.5625 385.910156 L 124.808594 358.34375 Z M 142.210938 376.933594 L 134.226562 371.828125 L 126.105469 366.632812 L 124.484375 370.023438 L 132.21875 374.972656 L 132.652344 375.25 L 132.101562 375.152344 L 122.664062 373.488281 L 120.945312 376.71875 L 128.136719 381.351562 L 131.988281 383.835938 L 129.121094 387.773438 L 124.855469 386.480469 L 124.859375 386.476562 L 124.824219 386.464844 L 121.898438 383.351562 L 123.3125 380.671875 L 123.300781 380.664062 L 120.0625 378.59375 L 120.050781 378.585938 L 117.335938 383.765625 L 122.660156 389.910156 L 122.664062 389.90625 L 122.671875 389.917969 L 130.425781 392.191406 L 137.511719 382.984375 L 130.117188 378.257812 L 130.097656 378.246094 L 130.121094 378.25 L 139.882812 379.875 Z M 142.210938 376.933594 " fill-opacity="1" fill-rule="nonzero"/></g></g></g></g><g clip-path="url(#68dddab697)"><g clip-path="url(#a23e4b2710)"><g clip-path="url(#2d72ac80b3)"><g clip-path="url(#ed43b9e6b0)"><path fill="#000000" d="M 318.449219 50.429688 L 299.394531 74.921875 L 287.191406 71.066406 L 278.574219 61.601562 L 292.820312 34.035156 Z M 310.222656 52.625 L 302.242188 47.519531 L 294.117188 42.324219 L 292.496094 45.714844 L 300.230469 50.664062 L 300.664062 50.941406 L 300.113281 50.84375 L 290.675781 49.179688 L 288.957031 52.410156 L 296.148438 57.042969 L 300 59.527344 L 297.132812 63.464844 L 292.867188 62.167969 L 292.871094 62.167969 L 292.835938 62.15625 L 289.910156 59.042969 L 291.324219 56.363281 L 291.3125 56.355469 L 288.074219 54.285156 L 288.0625 54.277344 L 285.347656 59.457031 L 290.671875 65.601562 L 290.675781 65.597656 L 290.683594 65.609375 L 298.4375 67.882812 L 305.523438 58.675781 L 298.128906 53.949219 L 298.109375 53.9375 L 298.132812 53.941406 L 307.894531 55.566406 Z M 310.222656 52.625 " fill-opacity="1" fill-rule="nonzero"/></g></g></g></g><g clip-path="url(#299f33470d)"><g clip-path="url(#d46741c48b)"><g clip-path="url(#b3cdf917dc)"><g clip-path="url(#a6e08de8f4)"><path fill="#000000" d="M 454.296875 190.285156 L 435.242188 214.777344 L 423.039062 210.917969 L 414.421875 201.457031 L 428.667969 173.890625 Z M 446.070312 192.480469 L 438.085938 187.375 L 429.964844 182.175781 L 428.34375 185.570312 L 436.078125 190.515625 L 436.511719 190.792969 L 435.960938 190.699219 L 426.523438 189.035156 L 424.804688 192.265625 L 431.996094 196.898438 L 435.847656 199.378906 L 432.980469 203.316406 L 428.714844 202.023438 L 428.71875 202.019531 L 428.683594 202.007812 L 425.757812 198.894531 L 427.171875 196.214844 L 427.160156 196.210938 L 423.921875 194.136719 L 423.910156 194.128906 L 421.195312 199.3125 L 426.519531 205.457031 L 426.523438 205.453125 L 426.53125 205.464844 L 434.285156 207.734375 L 441.367188 198.53125 L 433.976562 193.800781 L 433.957031 193.789062 L 433.980469 193.792969 L 443.742188 195.417969 Z M 446.070312 192.480469 " fill-opacity="1" fill-rule="nonzero"/></g></g></g></g><g clip-path="url(#f75d1d29e6)"><g clip-path="url(#56c7256e33)"><g clip-path="url(#f583270805)"><g clip-path="url(#557fd44afa)"><path fill="#000000" d="M 586.96875 85.832031 L 567.914062 110.324219 L 555.710938 106.464844 L 547.089844 97.003906 L 561.339844 69.4375 Z M 578.738281 88.027344 L 570.757812 82.921875 L 562.636719 77.722656 L 561.011719 81.117188 L 568.746094 86.0625 L 569.183594 86.339844 L 568.632812 86.246094 L 559.195312 84.582031 L 557.476562 87.8125 L 564.667969 92.445312 L 568.519531 94.925781 L 565.652344 98.863281 L 561.386719 97.570312 L 561.390625 97.566406 L 561.355469 97.554688 L 558.425781 94.441406 L 559.84375 91.765625 L 559.832031 91.757812 L 556.59375 89.683594 L 556.582031 89.679688 L 553.863281 94.859375 L 559.191406 101.003906 L 559.191406 101 L 559.203125 101.011719 L 566.957031 103.28125 L 574.039062 94.078125 L 566.648438 89.347656 L 566.628906 89.335938 L 566.652344 89.339844 L 576.410156 90.964844 Z M 578.738281 88.027344 " fill-opacity="1" fill-rule="nonzero"/></g></g></g></g><g clip-path="url(#013687c322)"><g clip-path="url(#a624b6417e)"><g clip-path="url(#d871c22e8f)"><g clip-path="url(#6afba7cd9e)"><path fill="#000000" d="M 83.78125 230.0625 L 101.835938 255.300781 L 94.664062 265.902344 L 83.136719 271.46875 L 60.769531 249.964844 Z M 83.542969 238.574219 L 76.375 244.773438 L 69.082031 251.082031 L 71.871094 253.601562 L 78.816406 247.59375 L 79.207031 247.257812 L 78.957031 247.757812 L 74.675781 256.332031 L 77.285156 258.898438 L 83.769531 253.324219 L 87.246094 250.335938 L 90.207031 254.207031 L 87.75 257.925781 L 87.730469 257.957031 L 83.910156 259.875 L 81.746094 257.753906 L 81.734375 257.765625 L 78.828125 260.277344 L 78.816406 260.285156 L 83.011719 264.367188 L 90.417969 261.011719 L 90.414062 261.007812 L 90.425781 261 L 94.8125 254.214844 L 88.003906 244.804688 L 81.367188 250.542969 L 81.351562 250.558594 L 81.359375 250.539062 L 85.699219 241.644531 Z M 83.542969 238.574219 " fill-opacity="1" fill-rule="nonzero"/></g></g></g></g><g clip-path="url(#8a89939b81)"><g clip-path="url(#af7351e7c5)"><g clip-path="url(#300e9d4cae)"><g clip-path="url(#f253d92819)"><path fill="#000000" d="M 574.128906 202.421875 L 555.074219 226.910156 L 542.871094 223.054688 L 534.253906 213.589844 L 548.5 186.023438 Z M 565.902344 204.613281 L 557.917969 199.507812 L 549.796875 194.3125 L 548.175781 197.703125 L 555.910156 202.652344 L 556.34375 202.929688 L 555.792969 202.832031 L 546.355469 201.167969 L 544.636719 204.398438 L 551.828125 209.03125 L 555.679688 211.515625 L 552.8125 215.453125 L 548.546875 214.160156 L 548.550781 214.15625 L 548.515625 214.144531 L 545.589844 211.03125 L 547.003906 208.351562 L 546.992188 208.34375 L 543.753906 206.273438 L 543.742188 206.265625 L 541.027344 211.445312 L 546.351562 217.589844 L 546.355469 217.589844 L 546.363281 217.597656 L 554.117188 219.871094 L 561.199219 210.667969 L 553.808594 205.9375 L 553.789062 205.925781 L 553.8125 205.929688 L 563.574219 207.554688 Z M 565.902344 204.613281 " fill-opacity="1" fill-rule="nonzero"/></g></g></g></g><g clip-path="url(#67a250cabf)"><g clip-path="url(#cbc7a58040)"><g clip-path="url(#ba67ef49cf)"><g clip-path="url(#6053cd6891)"><path fill="#000000" d="M 484.199219 504.289062 L 465.144531 528.777344 L 452.941406 524.921875 L 444.320312 515.457031 L 458.570312 487.894531 Z M 475.972656 506.484375 L 467.988281 501.375 L 459.867188 496.179688 L 458.242188 499.570312 L 465.980469 504.519531 L 466.414062 504.796875 L 465.863281 504.699219 L 456.425781 503.039062 L 454.707031 506.269531 L 461.898438 510.898438 L 465.75 513.382812 L 462.882812 517.320312 L 458.617188 516.027344 L 458.621094 516.023438 L 458.585938 516.011719 L 455.65625 512.898438 L 457.074219 510.21875 L 457.0625 510.210938 L 453.824219 508.140625 L 453.8125 508.132812 L 451.09375 513.3125 L 456.421875 519.460938 L 456.425781 519.457031 L 456.433594 519.464844 L 464.1875 521.738281 L 471.269531 512.535156 L 463.878906 507.804688 L 463.859375 507.792969 L 463.882812 507.796875 L 473.640625 509.421875 Z M 475.972656 506.484375 " fill-opacity="1" fill-rule="nonzero"/></g></g></g></g><g clip-path="url(#0bf6bdb3cc)"><g clip-path="url(#3cb59bee50)"><g clip-path="url(#23b23066ee)"><g clip-path="url(#4d98af194d)"><path fill="#000000" d="M 205.875 271.402344 L 223.929688 296.640625 L 216.757812 307.242188 L 205.230469 312.808594 L 182.863281 291.300781 Z M 205.636719 279.914062 L 198.472656 286.113281 L 191.175781 292.417969 L 193.964844 294.941406 L 200.910156 288.933594 L 201.300781 288.597656 L 201.050781 289.097656 L 196.769531 297.671875 L 199.378906 300.238281 L 205.867188 294.664062 L 209.34375 291.675781 L 212.300781 295.546875 L 209.847656 299.265625 L 209.84375 299.265625 L 209.824219 299.292969 L 206.003906 301.214844 L 203.839844 299.09375 L 203.828125 299.105469 L 200.921875 301.617188 L 200.914062 301.625 L 205.105469 305.707031 L 212.511719 302.347656 L 212.507812 302.347656 L 212.523438 302.339844 L 216.910156 295.554688 L 210.101562 286.144531 L 203.460938 291.882812 L 203.445312 291.898438 L 203.457031 291.875 L 207.792969 282.984375 Z M 205.636719 279.914062 " fill-opacity="1" fill-rule="nonzero"/></g></g></g></g><g clip-path="url(#841589a383)"><g clip-path="url(#06043eb641)"><g clip-path="url(#5fbf48ba6c)"><g clip-path="url(#54973c3155)"><path fill="#000000" d="M 387.640625 306.085938 L 405.695312 331.324219 L 398.523438 341.925781 L 386.996094 347.492188 L 364.628906 325.988281 Z M 387.402344 314.597656 L 380.234375 320.796875 L 372.941406 327.105469 L 375.730469 329.625 L 382.675781 323.617188 L 383.066406 323.28125 L 382.816406 323.78125 L 378.535156 332.355469 L 381.144531 334.921875 L 387.628906 329.347656 L 391.105469 326.359375 L 394.066406 330.230469 L 391.609375 333.953125 L 391.609375 333.949219 L 391.589844 333.980469 L 387.769531 335.898438 L 385.605469 333.777344 L 385.59375 333.789062 L 382.6875 336.300781 L 382.675781 336.3125 L 386.871094 340.390625 L 394.277344 337.035156 L 394.273438 337.03125 L 394.285156 337.023438 L 398.671875 330.238281 L 391.863281 320.828125 L 385.226562 326.566406 L 385.210938 326.582031 L 385.21875 326.5625 L 389.558594 317.667969 Z M 387.402344 314.597656 " fill-opacity="1" fill-rule="nonzero"/></g></g></g></g><g clip-path="url(#e7d7b10bb9)"><g clip-path="url(#b4290c8fe1)"><g clip-path="url(#4a84dae44a)"><g clip-path="url(#5e177f2667)"><path fill="#000000" d="M 273.703125 368.171875 L 291.757812 393.410156 L 284.585938 404.011719 L 273.058594 409.578125 L 250.691406 388.074219 Z M 273.464844 376.683594 L 266.300781 382.882812 L 259.003906 389.191406 L 261.792969 391.710938 L 268.738281 385.707031 L 269.128906 385.367188 L 268.878906 385.867188 L 264.597656 394.441406 L 267.207031 397.007812 L 273.695312 391.433594 L 277.171875 388.445312 L 280.128906 392.316406 L 277.675781 396.039062 L 277.671875 396.035156 L 277.652344 396.066406 L 273.832031 397.984375 L 271.667969 395.867188 L 271.65625 395.875 L 268.75 398.386719 L 268.742188 398.398438 L 272.933594 402.476562 L 280.339844 399.121094 L 280.335938 399.117188 L 280.351562 399.109375 L 284.738281 392.324219 L 277.929688 382.914062 L 271.289062 388.65625 L 271.273438 388.667969 L 271.285156 388.648438 L 275.621094 379.753906 Z M 273.464844 376.683594 " fill-opacity="1" fill-rule="nonzero"/></g></g></g></g><g clip-path="url(#c6f52f6b34)"><g clip-path="url(#de01316a0f)"><g clip-path="url(#29a35a6e94)"><g clip-path="url(#8daa8584c9)"><path fill="#000000" d="M 296.757812 192.980469 L 314.8125 218.21875 L 307.640625 228.820312 L 296.113281 234.390625 L 273.746094 212.882812 Z M 296.519531 201.496094 L 289.351562 207.691406 L 282.058594 214 L 284.847656 216.519531 L 291.792969 210.515625 L 292.183594 210.175781 L 291.933594 210.675781 L 287.652344 219.25 L 290.261719 221.816406 L 296.746094 216.242188 L 300.226562 213.257812 L 303.183594 217.125 L 300.726562 220.847656 L 300.726562 220.84375 L 300.707031 220.875 L 296.886719 222.792969 L 294.722656 220.675781 L 294.710938 220.683594 L 291.804688 223.195312 L 291.792969 223.207031 L 295.988281 227.285156 L 303.394531 223.929688 L 303.390625 223.925781 L 303.40625 223.917969 L 307.789062 217.132812 L 300.984375 207.722656 L 294.34375 213.464844 L 294.328125 213.476562 L 294.339844 213.457031 L 298.675781 204.5625 Z M 296.519531 201.496094 " fill-opacity="1" fill-rule="nonzero"/></g></g></g></g><g clip-path="url(#173ea12a53)"><g clip-path="url(#ec9781cc01)"><g clip-path="url(#faa8d32aab)"><g clip-path="url(#8f49e28ff2)"><path fill="#000000" d="M 237.417969 486.621094 L 255.46875 511.859375 L 248.296875 522.460938 L 236.773438 528.027344 L 214.402344 506.523438 Z M 237.179688 495.132812 L 230.011719 501.332031 L 222.71875 507.640625 L 225.507812 510.160156 L 232.453125 504.152344 L 232.84375 503.816406 L 232.59375 504.316406 L 228.3125 512.890625 L 230.917969 515.457031 L 237.40625 509.882812 L 240.882812 506.894531 L 243.84375 510.765625 L 241.386719 514.488281 L 241.382812 514.484375 L 241.363281 514.515625 L 237.546875 516.433594 L 235.378906 514.3125 L 235.371094 514.324219 L 232.464844 516.835938 L 232.453125 516.847656 L 236.644531 520.925781 L 244.050781 517.570312 L 244.050781 517.566406 L 244.0625 517.558594 L 248.449219 510.773438 L 241.640625 501.363281 L 235.003906 507.101562 L 234.984375 507.117188 L 234.996094 507.097656 L 239.332031 498.203125 Z M 237.179688 495.132812 " fill-opacity="1" fill-rule="nonzero"/></g></g></g></g><g clip-path="url(#18b4035d28)"><g clip-path="url(#6f75b0b130)"><g clip-path="url(#8cef185af2)"><g clip-path="url(#913580abf3)"><path fill="#000000" d="M 74.367188 486.355469 L 92.417969 511.59375 L 85.246094 522.195312 L 73.722656 527.761719 L 51.351562 506.253906 Z M 74.128906 494.867188 L 66.960938 501.066406 L 59.667969 507.371094 L 62.457031 509.894531 L 69.402344 503.886719 L 69.792969 503.550781 L 69.542969 504.050781 L 65.261719 512.625 L 67.867188 515.191406 L 74.355469 509.617188 L 77.832031 506.628906 L 80.792969 510.5 L 78.335938 514.21875 L 78.332031 514.21875 L 78.3125 514.246094 L 74.496094 516.167969 L 72.328125 514.046875 L 72.320312 514.058594 L 69.414062 516.570312 L 69.402344 516.578125 L 73.59375 520.660156 L 81 517.300781 L 81.011719 517.292969 L 85.398438 510.507812 L 78.589844 501.097656 L 71.953125 506.835938 L 71.933594 506.851562 L 71.945312 506.828125 L 76.28125 497.9375 Z M 74.128906 494.867188 " fill-opacity="1" fill-rule="nonzero"/></g></g></g></g><g clip-path="url(#73967fd040)"><g clip-path="url(#3c0ebe572d)"><g clip-path="url(#3882bba7f4)"><g clip-path="url(#ba5caf64ac)"><path fill="#000000" d="M 634.21875 238.898438 L 652.273438 264.136719 L 645.101562 274.738281 L 633.574219 280.304688 L 611.207031 258.800781 Z M 633.980469 247.410156 L 626.816406 253.609375 L 619.519531 259.917969 L 622.3125 262.4375 L 629.253906 256.429688 L 629.644531 256.09375 L 629.394531 256.59375 L 625.113281 265.167969 L 627.722656 267.734375 L 634.210938 262.160156 L 637.6875 259.171875 L 640.644531 263.042969 L 638.191406 266.761719 L 638.1875 266.761719 L 638.167969 266.792969 L 634.347656 268.710938 L 632.183594 266.589844 L 632.175781 266.601562 L 629.265625 269.113281 L 629.257812 269.125 L 633.449219 273.203125 L 640.855469 269.847656 L 640.851562 269.84375 L 640.867188 269.835938 L 645.253906 263.050781 L 638.445312 253.640625 L 631.804688 259.378906 L 631.789062 259.394531 L 631.800781 259.375 L 636.136719 250.480469 Z M 633.980469 247.410156 " fill-opacity="1" fill-rule="nonzero"/></g></g></g></g><g clip-path="url(#d20fdb5c13)"><g clip-path="url(#2fa4428bd6)"><g clip-path="url(#b8542cde2b)"><g clip-path="url(#c3cd7696e6)"><path fill="#000000" d="M 191.5 127.652344 L 209.554688 152.890625 L 202.378906 163.492188 L 190.855469 169.058594 L 168.488281 147.554688 Z M 191.261719 136.164062 L 184.09375 142.363281 L 176.800781 148.671875 L 179.589844 151.191406 L 186.535156 145.1875 L 186.925781 144.847656 L 186.675781 145.347656 L 182.394531 153.921875 L 185 156.488281 L 191.488281 150.914062 L 194.964844 147.925781 L 197.925781 151.796875 L 195.46875 155.519531 L 195.46875 155.515625 L 195.445312 155.546875 L 191.628906 157.464844 L 189.464844 155.347656 L 189.453125 155.355469 L 186.546875 157.867188 L 186.535156 157.878906 L 190.726562 161.957031 L 198.136719 158.601562 L 198.132812 158.597656 L 198.144531 158.589844 L 202.53125 151.804688 L 195.722656 142.394531 L 189.085938 148.136719 L 189.070312 148.148438 L 189.078125 148.128906 L 193.417969 139.234375 Z M 191.261719 136.164062 " fill-opacity="1" fill-rule="nonzero"/></g></g></g></g><g clip-path="url(#135f08d286)"><g clip-path="url(#588e4e89f5)"><g clip-path="url(#5e45eb5b2a)"><g clip-path="url(#7b862da8be)"><path fill="#000000" d="M 605.980469 480.855469 L 624.035156 506.09375 L 616.863281 516.691406 L 605.335938 522.261719 L 582.96875 500.753906 Z M 605.742188 489.367188 L 598.578125 495.5625 L 591.28125 501.871094 L 594.074219 504.390625 L 601.015625 498.386719 L 601.40625 498.046875 L 601.15625 498.546875 L 596.875 507.121094 L 599.484375 509.6875 L 605.972656 504.113281 L 609.449219 501.128906 L 612.40625 505 L 609.953125 508.71875 L 609.949219 508.714844 L 609.929688 508.746094 L 606.109375 510.664062 L 603.945312 508.546875 L 603.9375 508.554688 L 601.027344 511.070312 L 601.019531 511.078125 L 605.210938 515.15625 L 612.617188 511.800781 L 612.613281 511.796875 L 612.628906 511.792969 L 617.015625 505.003906 L 610.207031 495.59375 L 603.566406 501.335938 L 603.550781 501.347656 L 603.5625 501.328125 L 607.898438 492.433594 Z M 605.742188 489.367188 " fill-opacity="1" fill-rule="nonzero"/></g></g></g></g><g clip-path="url(#8b3a22cf73)"><g clip-path="url(#88c402a5c2)"><g clip-path="url(#e0f537ac20)"><g clip-path="url(#c0b391acf2)"><path fill="#000000" d="M 514.675781 322.257812 L 532.726562 347.492188 L 525.554688 358.09375 L 514.03125 363.664062 L 491.664062 342.15625 Z M 514.4375 330.769531 L 507.269531 336.964844 L 499.976562 343.273438 L 502.765625 345.792969 L 509.710938 339.789062 L 510.101562 339.449219 L 509.851562 339.949219 L 505.570312 348.523438 L 508.175781 351.089844 L 514.664062 345.515625 L 518.140625 342.53125 L 521.101562 346.398438 L 518.644531 350.121094 L 518.644531 350.117188 L 518.621094 350.148438 L 514.804688 352.066406 L 512.640625 349.949219 L 512.628906 349.957031 L 509.722656 352.472656 L 509.710938 352.480469 L 513.902344 356.558594 L 521.3125 353.203125 L 521.308594 353.199219 L 521.320312 353.195312 L 525.707031 346.40625 L 518.898438 336.996094 L 512.261719 342.738281 L 512.246094 342.75 L 512.253906 342.730469 L 516.59375 333.835938 Z M 514.4375 330.769531 " fill-opacity="1" fill-rule="nonzero"/></g></g></g></g><g clip-path="url(#928aa7d338)"><g clip-path="url(#01b9b0d640)"><g clip-path="url(#a143d7c7a0)"><g clip-path="url(#830992d56d)"><path fill="#000000" d="M 444.207031 56.183594 L 462.257812 81.421875 L 455.085938 92.023438 L 443.5625 97.589844 L 421.195312 76.082031 Z M 443.96875 64.695312 L 436.800781 70.890625 L 429.507812 77.199219 L 432.296875 79.71875 L 439.242188 73.714844 L 439.632812 73.378906 L 439.382812 73.878906 L 435.101562 82.449219 L 437.707031 85.015625 L 444.195312 79.445312 L 447.671875 76.457031 L 450.632812 80.328125 L 448.175781 84.046875 L 448.171875 84.042969 L 448.152344 84.074219 L 444.335938 85.992188 L 442.171875 83.875 L 442.160156 83.882812 L 439.253906 86.398438 L 439.242188 86.40625 L 443.433594 90.484375 L 450.839844 87.128906 L 450.839844 87.125 L 450.851562 87.121094 L 455.238281 80.335938 L 448.429688 70.921875 L 441.792969 76.664062 L 441.777344 76.679688 L 441.785156 76.65625 L 446.125 67.765625 Z M 443.96875 64.695312 " fill-opacity="1" fill-rule="nonzero"/></g></g></g></g><g clip-path="url(#00677acfbb)"><g clip-path="url(#4cfc198a9e)"><g clip-path="url(#88091122e2)"><g clip-path="url(#7c25586d6c)"><path fill="#000000" d="M 398.289062 434.9375 L 416.34375 460.175781 L 409.171875 470.777344 L 397.644531 476.34375 L 375.277344 454.835938 Z M 398.050781 443.449219 L 390.882812 449.648438 L 383.589844 455.953125 L 386.378906 458.476562 L 393.324219 452.46875 L 393.714844 452.132812 L 393.464844 452.632812 L 389.183594 461.203125 L 391.792969 463.769531 L 398.277344 458.199219 L 401.753906 455.210938 L 404.714844 459.082031 L 402.257812 462.800781 L 402.257812 462.796875 L 402.238281 462.828125 L 398.417969 464.746094 L 396.253906 462.628906 L 396.242188 462.636719 L 393.335938 465.152344 L 393.324219 465.160156 L 397.519531 469.238281 L 404.925781 465.882812 L 404.921875 465.878906 L 404.933594 465.875 L 409.320312 459.089844 L 402.511719 449.675781 L 395.875 455.417969 L 395.859375 455.433594 L 395.867188 455.410156 L 400.207031 446.519531 Z M 398.050781 443.449219 " fill-opacity="1" fill-rule="nonzero"/></g></g></g></g></svg>