<svg xmlns="http://www.w3.org/2000/svg" xmlns:xlink="http://www.w3.org/1999/xlink" width="944" zoomAndPan="magnify" viewBox="0 0 708.75 567.000005" height="755" preserveAspectRatio="xMidYMid meet" version="1.0"><defs><clipPath id="076da6bd0b"><path d="M 380 46 L 439 46 L 439 105 L 380 105 Z M 380 46 " clip-rule="nonzero"/></clipPath><clipPath id="2b550d2460"><path d="M 354.878906 55.71875 L 429.613281 21.054688 L 464.28125 95.789062 L 389.546875 130.453125 Z M 354.878906 55.71875 " clip-rule="nonzero"/></clipPath><clipPath id="0ec9fd2de0"><path d="M 354.878906 55.71875 L 429.613281 21.054688 L 464.28125 95.789062 L 389.546875 130.453125 Z M 354.878906 55.71875 " clip-rule="nonzero"/></clipPath><clipPath id="ce9aaefcfd"><path d="M 354.878906 55.71875 L 429.613281 21.054688 L 464.28125 95.789062 L 389.546875 130.453125 Z M 354.878906 55.71875 " clip-rule="nonzero"/></clipPath><clipPath id="51a1d92d3c"><path d="M 408 181 L 466 181 L 466 239 L 408 239 Z M 408 181 " clip-rule="nonzero"/></clipPath><clipPath id="941b8abdee"><path d="M 382.375 189.648438 L 457.445312 155.714844 L 491.378906 230.785156 L 416.304688 264.71875 Z M 382.375 189.648438 " clip-rule="nonzero"/></clipPath><clipPath id="cb2f223189"><path d="M 382.375 189.648438 L 457.445312 155.714844 L 491.378906 230.785156 L 416.304688 264.71875 Z M 382.375 189.648438 " clip-rule="nonzero"/></clipPath><clipPath id="6328312e81"><path d="M 382.375 189.648438 L 457.445312 155.714844 L 491.378906 230.785156 L 416.304688 264.71875 Z M 382.375 189.648438 " clip-rule="nonzero"/></clipPath><clipPath id="19699fdbd0"><path d="M 232 225 L 290 225 L 290 283 L 232 283 Z M 232 225 " clip-rule="nonzero"/></clipPath><clipPath id="7108f39fcc"><path d="M 239.359375 199.988281 L 315.085938 232.429688 L 282.644531 308.160156 L 206.917969 275.714844 Z M 239.359375 199.988281 " clip-rule="nonzero"/></clipPath><clipPath id="d3d6b25079"><path d="M 239.359375 199.988281 L 315.085938 232.429688 L 282.644531 308.160156 L 206.917969 275.714844 Z M 239.359375 199.988281 " clip-rule="nonzero"/></clipPath><clipPath id="b64062c098"><path d="M 239.359375 199.988281 L 315.085938 232.429688 L 282.644531 308.160156 L 206.917969 275.714844 Z M 239.359375 199.988281 " clip-rule="nonzero"/></clipPath><clipPath id="3c64bd2d0a"><path d="M 92 156 L 151 156 L 151 215 L 92 215 Z M 92 156 " clip-rule="nonzero"/></clipPath><clipPath id="a52a9accc8"><path d="M 102.136719 130.214844 L 176.484375 165.699219 L 140.996094 240.050781 L 66.648438 204.5625 Z M 102.136719 130.214844 " clip-rule="nonzero"/></clipPath><clipPath id="2e17211623"><path d="M 102.136719 130.214844 L 176.484375 165.699219 L 140.996094 240.050781 L 66.648438 204.5625 Z M 102.136719 130.214844 " clip-rule="nonzero"/></clipPath><clipPath id="315a5929e2"><path d="M 102.136719 130.214844 L 176.484375 165.699219 L 140.996094 240.050781 L 66.648438 204.5625 Z M 102.136719 130.214844 " clip-rule="nonzero"/></clipPath><clipPath id="6cf1eac13e"><path d="M 61 44 L 121 44 L 121 103 L 61 103 Z M 61 44 " clip-rule="nonzero"/></clipPath><clipPath id="9f32635751"><path d="M 35.207031 56.769531 L 107.824219 17.855469 L 146.734375 90.46875 L 74.121094 129.382812 Z M 35.207031 56.769531 " clip-rule="nonzero"/></clipPath><clipPath id="84cb7a6284"><path d="M 35.207031 56.769531 L 107.824219 17.855469 L 146.734375 90.46875 L 74.121094 129.382812 Z M 35.207031 56.769531 " clip-rule="nonzero"/></clipPath><clipPath id="e1c1875611"><path d="M 35.207031 56.769531 L 107.824219 17.855469 L 146.734375 90.46875 L 74.121094 129.382812 Z M 35.207031 56.769531 " clip-rule="nonzero"/></clipPath><clipPath id="ef37f7a2ab"><path d="M 349 471 L 407 471 L 407 529 L 349 529 Z M 349 471 " clip-rule="nonzero"/></clipPath><clipPath id="829175661b"><path d="M 323.300781 480.125 L 398.019531 445.421875 L 432.722656 520.140625 L 358.003906 554.84375 Z M 323.300781 480.125 " clip-rule="nonzero"/></clipPath><clipPath id="88c01e876b"><path d="M 323.300781 480.125 L 398.019531 445.421875 L 432.722656 520.140625 L 358.003906 554.84375 Z M 323.300781 480.125 " clip-rule="nonzero"/></clipPath><clipPath id="2b3cfb4e87"><path d="M 323.300781 480.125 L 398.019531 445.421875 L 432.722656 520.140625 L 358.003906 554.84375 Z M 323.300781 480.125 " clip-rule="nonzero"/></clipPath><clipPath id="3f598314f8"><path d="M 203 402 L 264 402 L 264 463 L 203 463 Z M 203 402 " clip-rule="nonzero"/></clipPath><clipPath id="2413c33c35"><path d="M 222.96875 375.066406 L 290.714844 421.941406 L 243.835938 489.6875 L 176.089844 442.808594 Z M 222.96875 375.066406 " clip-rule="nonzero"/></clipPath><clipPath id="7269ce447d"><path d="M 222.96875 375.066406 L 290.714844 421.941406 L 243.835938 489.6875 L 176.089844 442.808594 Z M 222.96875 375.066406 " clip-rule="nonzero"/></clipPath><clipPath id="c323ec01bd"><path d="M 222.96875 375.066406 L 290.714844 421.941406 L 243.835938 489.6875 L 176.089844 442.808594 Z M 222.96875 375.066406 " clip-rule="nonzero"/></clipPath><clipPath id="b0bfc25aa6"><path d="M 519 320 L 580 320 L 580 380 L 519 380 Z M 519 320 " clip-rule="nonzero"/></clipPath><clipPath id="1ffdaacb7b"><path d="M 492.523438 336.96875 L 562.328125 293.214844 L 606.082031 363.019531 L 536.277344 406.773438 Z M 492.523438 336.96875 " clip-rule="nonzero"/></clipPath><clipPath id="fb6cb825ac"><path d="M 492.523438 336.96875 L 562.328125 293.214844 L 606.082031 363.019531 L 536.277344 406.773438 Z M 492.523438 336.96875 " clip-rule="nonzero"/></clipPath><clipPath id="b6f90719f6"><path d="M 492.523438 336.96875 L 562.328125 293.214844 L 606.082031 363.019531 L 536.277344 406.773438 Z M 492.523438 336.96875 " clip-rule="nonzero"/></clipPath><clipPath id="84c07e9b0a"><path d="M 231 58 L 291 58 L 291 118 L 231 118 Z M 231 58 " clip-rule="nonzero"/></clipPath><clipPath id="810b7fa87f"><path d="M 204.960938 71.5625 L 277.378906 32.285156 L 316.65625 104.703125 L 244.238281 143.980469 Z M 204.960938 71.5625 " clip-rule="nonzero"/></clipPath><clipPath id="0793eac71b"><path d="M 204.960938 71.5625 L 277.378906 32.285156 L 316.65625 104.703125 L 244.238281 143.980469 Z M 204.960938 71.5625 " clip-rule="nonzero"/></clipPath><clipPath id="86f90a54c0"><path d="M 204.960938 71.5625 L 277.378906 32.285156 L 316.65625 104.703125 L 244.238281 143.980469 Z M 204.960938 71.5625 " clip-rule="nonzero"/></clipPath><clipPath id="43bbde3966"><path d="M 552 196 L 610 196 L 610 254 L 552 254 Z M 552 196 " clip-rule="nonzero"/></clipPath><clipPath id="b5cad5a5da"><path d="M 526.359375 204.445312 L 601.28125 170.179688 L 635.546875 245.097656 L 560.625 279.363281 Z M 526.359375 204.445312 " clip-rule="nonzero"/></clipPath><clipPath id="2c1697452a"><path d="M 526.359375 204.445312 L 601.28125 170.179688 L 635.546875 245.097656 L 560.625 279.363281 Z M 526.359375 204.445312 " clip-rule="nonzero"/></clipPath><clipPath id="16ab9e68dd"><path d="M 526.359375 204.445312 L 601.28125 170.179688 L 635.546875 245.097656 L 560.625 279.363281 Z M 526.359375 204.445312 " clip-rule="nonzero"/></clipPath><clipPath id="ba6f7f752d"><path d="M 566 46 L 630 46 L 630 110 L 566 110 Z M 566 46 " clip-rule="nonzero"/></clipPath><clipPath id="d71909abca"><path d="M 588.960938 17.984375 L 657.617188 68.734375 L 606.867188 137.394531 L 538.207031 86.640625 Z M 588.960938 17.984375 " clip-rule="nonzero"/></clipPath><clipPath id="c6ec746fe7"><path d="M 588.960938 17.984375 L 657.617188 68.734375 L 606.867188 137.394531 L 538.207031 86.640625 Z M 588.960938 17.984375 " clip-rule="nonzero"/></clipPath><clipPath id="284ddc263e"><path d="M 588.960938 17.984375 L 657.617188 68.734375 L 606.867188 137.394531 L 538.207031 86.640625 Z M 588.960938 17.984375 " clip-rule="nonzero"/></clipPath><clipPath id="fb321eb573"><path d="M 376 318 L 432 318 L 432 374 L 376 374 Z M 376 318 " clip-rule="nonzero"/></clipPath><clipPath id="d22f371fa7"><path d="M 351.539062 319.953125 L 429.484375 293.277344 L 456.164062 371.222656 L 378.21875 397.898438 Z M 351.539062 319.953125 " clip-rule="nonzero"/></clipPath><clipPath id="ef39e3da15"><path d="M 351.539062 319.953125 L 429.484375 293.277344 L 456.164062 371.222656 L 378.21875 397.898438 Z M 351.539062 319.953125 " clip-rule="nonzero"/></clipPath><clipPath id="fc7663b9f8"><path d="M 351.539062 319.953125 L 429.484375 293.277344 L 456.164062 371.222656 L 378.21875 397.898438 Z M 351.539062 319.953125 " clip-rule="nonzero"/></clipPath><clipPath id="cb357519a9"><path d="M 59 461 L 116 461 L 116 517 L 59 517 Z M 59 461 " clip-rule="nonzero"/></clipPath><clipPath id="eacef0ed25"><path d="M 35.207031 463.765625 L 113.152344 437.089844 L 139.832031 515.035156 L 61.886719 541.710938 Z M 35.207031 463.765625 " clip-rule="nonzero"/></clipPath><clipPath id="7c28182ac0"><path d="M 35.207031 463.765625 L 113.152344 437.089844 L 139.832031 515.035156 L 61.886719 541.710938 Z M 35.207031 463.765625 " clip-rule="nonzero"/></clipPath><clipPath id="6926342fed"><path d="M 35.207031 463.765625 L 113.152344 437.089844 L 139.832031 515.035156 L 61.886719 541.710938 Z M 35.207031 463.765625 " clip-rule="nonzero"/></clipPath><clipPath id="6a9e2a38ae"><path d="M 59 322 L 116 322 L 116 378 L 59 378 Z M 59 322 " clip-rule="nonzero"/></clipPath><clipPath id="ba5608c2a4"><path d="M 35.207031 324.40625 L 113.152344 297.730469 L 139.832031 375.675781 L 61.886719 402.351562 Z M 35.207031 324.40625 " clip-rule="nonzero"/></clipPath><clipPath id="e2cb455d96"><path d="M 35.207031 324.40625 L 113.152344 297.730469 L 139.832031 375.675781 L 61.886719 402.351562 Z M 35.207031 324.40625 " clip-rule="nonzero"/></clipPath><clipPath id="9b31b43f44"><path d="M 35.207031 324.40625 L 113.152344 297.730469 L 139.832031 375.675781 L 61.886719 402.351562 Z M 35.207031 324.40625 " clip-rule="nonzero"/></clipPath><clipPath id="092bc85cbe"><path d="M 578 475 L 634 475 L 634 531 L 578 531 Z M 578 475 " clip-rule="nonzero"/></clipPath><clipPath id="1081db7229"><path d="M 553.570312 476.910156 L 631.515625 450.230469 L 658.191406 528.175781 L 580.25 554.855469 Z M 553.570312 476.910156 " clip-rule="nonzero"/></clipPath><clipPath id="2b3722a347"><path d="M 553.570312 476.910156 L 631.515625 450.230469 L 658.191406 528.175781 L 580.25 554.855469 Z M 553.570312 476.910156 " clip-rule="nonzero"/></clipPath><clipPath id="823e82a235"><path d="M 553.570312 476.910156 L 631.515625 450.230469 L 658.191406 528.175781 L 580.25 554.855469 Z M 553.570312 476.910156 " clip-rule="nonzero"/></clipPath></defs><g clip-path="url(#076da6bd0b)"><g clip-path="url(#2b550d2460)"><g clip-path="url(#0ec9fd2de0)"><g clip-path="url(#ce9aaefcfd)"><path fill="#000000" d="M 427.75 87.476562 C 424.320312 89.070312 421.34375 88.460938 419.269531 86.824219 L 421.46875 83.6875 C 422.863281 84.613281 424.332031 85.085938 426.152344 84.238281 C 427.683594 83.53125 428.304688 82.3125 427.816406 81.253906 C 427.078125 79.667969 424.671875 80.027344 422.875 80.082031 C 419.683594 80.183594 417.253906 79.578125 415.855469 76.566406 C 414.570312 73.796875 415.703125 70.703125 419.003906 69.171875 C 421.351562 68.085938 423.425781 68.117188 425.628906 69.691406 L 423.609375 72.875 C 422.449219 72.035156 421.554688 71.902344 420.5 72.394531 C 419.414062 72.898438 419.046875 73.902344 419.464844 74.796875 C 419.976562 75.90625 420.871094 76.039062 422.777344 75.988281 C 426.757812 75.871094 429.789062 75.824219 431.488281 79.488281 C 433.03125 82.816406 431.265625 85.847656 427.75 87.476562 Z M 416.65625 85.855469 C 418.429688 89.683594 417.011719 92.800781 413.738281 94.320312 C 410.78125 95.691406 408.484375 95.382812 406.699219 93.820312 L 406.667969 93.835938 L 406.65625 93.839844 L 406.648438 93.84375 L 408.679688 90.347656 C 409.738281 91.105469 410.597656 91.59375 411.867188 91.007812 C 413.082031 90.441406 413.554688 89.476562 412.699219 87.628906 L 406.703125 74.699219 L 410.632812 72.875 Z M 399.035156 104.546875 L 438.371094 86.300781 L 420.125 46.964844 L 380.789062 65.210938 Z M 399.035156 104.546875 " fill-opacity="1" fill-rule="evenodd"/></g></g></g></g><g clip-path="url(#51a1d92d3c)"><g clip-path="url(#941b8abdee)"><g clip-path="url(#cb2f223189)"><g clip-path="url(#6328312e81)"><path fill="#000000" d="M 454.929688 222.117188 C 451.484375 223.675781 448.511719 223.039062 446.453125 221.382812 L 448.683594 218.265625 C 450.070312 219.203125 451.535156 219.691406 453.363281 218.863281 C 454.902344 218.167969 455.535156 216.957031 455.058594 215.894531 C 454.335938 214.300781 451.921875 214.636719 450.128906 214.671875 C 446.933594 214.746094 444.507812 214.117188 443.144531 211.089844 C 441.882812 208.308594 443.046875 205.226562 446.363281 203.726562 C 448.722656 202.660156 450.792969 202.714844 452.984375 204.3125 L 450.933594 207.476562 C 449.78125 206.621094 448.886719 206.484375 447.828125 206.964844 C 446.738281 207.457031 446.359375 208.457031 446.769531 209.359375 C 447.269531 210.472656 448.164062 210.609375 450.070312 210.582031 C 454.050781 210.503906 457.085938 210.484375 458.746094 214.164062 C 460.257812 217.507812 458.460938 220.523438 454.929688 222.117188 Z M 443.851562 220.386719 C 445.589844 224.230469 444.140625 227.335938 440.851562 228.824219 C 437.878906 230.164062 435.585938 229.832031 433.816406 228.253906 L 433.789062 228.265625 L 433.765625 228.277344 L 435.832031 224.800781 C 436.882812 225.570312 437.738281 226.066406 439.011719 225.492188 C 440.230469 224.9375 440.714844 223.976562 439.875 222.121094 L 434.007812 209.132812 L 437.957031 207.347656 Z M 426.050781 238.902344 L 465.5625 221.042969 L 447.703125 181.53125 L 408.191406 199.390625 Z M 426.050781 238.902344 " fill-opacity="1" fill-rule="evenodd"/></g></g></g></g><g clip-path="url(#19699fdbd0)"><g clip-path="url(#7108f39fcc)"><g clip-path="url(#d3d6b25079)"><g clip-path="url(#b64062c098)"><path fill="#000000" d="M 264.421875 275.425781 C 260.941406 273.933594 259.40625 271.316406 259.238281 268.675781 L 263.042969 268.21875 C 263.285156 269.871094 263.914062 271.28125 265.761719 272.074219 C 267.3125 272.738281 268.636719 272.386719 269.09375 271.316406 C 269.785156 269.707031 267.90625 268.15625 266.667969 266.855469 C 264.457031 264.550781 263.28125 262.335938 264.589844 259.285156 C 265.792969 256.476562 268.851562 255.253906 272.195312 256.6875 C 274.574219 257.707031 275.933594 259.269531 276.234375 261.960938 L 272.515625 262.585938 C 272.367188 261.160156 271.867188 260.410156 270.796875 259.949219 C 269.699219 259.480469 268.707031 259.878906 268.316406 260.789062 C 267.835938 261.910156 268.335938 262.664062 269.644531 264.046875 C 272.390625 266.929688 274.453125 269.15625 272.863281 272.867188 C 271.417969 276.238281 267.980469 276.949219 264.421875 275.425781 Z M 258.214844 266.085938 C 256.550781 269.964844 253.285156 270.992188 249.964844 269.570312 C 246.96875 268.285156 245.664062 266.371094 245.636719 264 L 245.605469 263.988281 L 245.582031 263.976562 L 249.542969 263.152344 C 249.683594 264.445312 249.898438 265.414062 251.179688 265.964844 C 252.414062 266.492188 253.449219 266.195312 254.25 264.324219 L 259.863281 251.226562 L 263.847656 252.933594 Z M 232.535156 265.464844 L 272.394531 282.539062 L 289.46875 242.683594 L 249.609375 225.605469 Z M 232.535156 265.464844 " fill-opacity="1" fill-rule="evenodd"/></g></g></g></g><g clip-path="url(#3c64bd2d0a)"><g clip-path="url(#a52a9accc8)"><g clip-path="url(#2e17211623)"><g clip-path="url(#315a5929e2)"><path fill="#000000" d="M 124.117188 206.605469 C 120.703125 204.976562 119.273438 202.292969 119.210938 199.652344 L 123.035156 199.347656 C 123.207031 201.011719 123.78125 202.445312 125.59375 203.308594 C 127.117188 204.035156 128.453125 203.738281 128.953125 202.6875 C 129.707031 201.109375 127.894531 199.480469 126.710938 198.132812 C 124.59375 195.738281 123.511719 193.480469 124.941406 190.484375 C 126.257812 187.726562 129.359375 186.628906 132.644531 188.199219 C 134.980469 189.3125 136.277344 190.929688 136.46875 193.632812 L 132.726562 194.105469 C 132.636719 192.675781 132.167969 191.902344 131.117188 191.402344 C 130.039062 190.886719 129.03125 191.246094 128.605469 192.136719 C 128.078125 193.238281 128.546875 194.011719 129.796875 195.449219 C 132.425781 198.441406 134.394531 200.75 132.65625 204.390625 C 131.078125 207.703125 127.613281 208.273438 124.117188 206.605469 Z M 118.292969 197.019531 C 116.476562 200.828125 113.167969 201.722656 109.910156 200.167969 C 106.96875 198.765625 105.742188 196.796875 105.8125 194.425781 L 105.78125 194.414062 L 105.757812 194.402344 L 109.75 193.738281 C 109.839844 195.039062 110.011719 196.011719 111.273438 196.613281 C 112.480469 197.191406 113.527344 196.9375 114.40625 195.101562 L 120.542969 182.242188 L 124.457031 184.109375 Z M 92.664062 195.359375 L 131.792969 214.035156 L 150.472656 174.90625 L 111.339844 156.226562 Z M 92.664062 195.359375 " fill-opacity="1" fill-rule="evenodd"/></g></g></g></g><g clip-path="url(#6cf1eac13e)"><g clip-path="url(#9f32635751)"><g clip-path="url(#84cb7a6284)"><g clip-path="url(#e1c1875611)"><path fill="#000000" d="M 109.789062 84.277344 C 106.453125 86.0625 103.445312 85.628906 101.28125 84.113281 L 103.296875 80.851562 C 104.742188 81.699219 106.234375 82.085938 108.007812 81.136719 C 109.492188 80.339844 110.042969 79.085938 109.492188 78.058594 C 108.667969 76.515625 106.28125 77.015625 104.496094 77.171875 C 101.3125 77.457031 98.851562 76.996094 97.28125 74.070312 C 95.839844 71.375 96.792969 68.226562 100 66.503906 C 102.28125 65.28125 104.351562 65.195312 106.644531 66.640625 L 104.8125 69.9375 C 103.605469 69.164062 102.703125 69.085938 101.679688 69.636719 C 100.625 70.199219 100.316406 71.222656 100.78125 72.09375 C 101.359375 73.171875 102.261719 73.25 104.160156 73.09375 C 108.128906 72.746094 111.152344 72.527344 113.058594 76.082031 C 114.792969 79.316406 113.199219 82.445312 109.789062 84.277344 Z M 98.617188 83.292969 C 100.609375 87.015625 99.371094 90.210938 96.191406 91.914062 C 93.316406 93.453125 91.007812 93.277344 89.136719 91.820312 L 89.105469 91.835938 L 89.09375 91.84375 L 89.085938 91.847656 L 90.914062 88.238281 C 92.011719 88.9375 92.902344 89.375 94.132812 88.714844 C 95.3125 88.082031 95.730469 87.085938 94.769531 85.292969 L 88.035156 72.730469 L 91.859375 70.683594 Z M 82.101562 102.96875 L 120.320312 82.488281 L 99.839844 44.269531 L 61.621094 64.75 Z M 82.101562 102.96875 " fill-opacity="1" fill-rule="evenodd"/></g></g></g></g><g clip-path="url(#ef37f7a2ab)"><g clip-path="url(#829175661b)"><g clip-path="url(#88c01e876b)"><g clip-path="url(#2b3cfb4e87)"><path fill="#000000" d="M 396.1875 511.847656 C 392.757812 513.441406 389.777344 512.835938 387.703125 511.199219 L 389.902344 508.058594 C 391.296875 508.984375 392.765625 509.457031 394.589844 508.609375 C 396.117188 507.898438 396.742188 506.679688 396.25 505.625 C 395.511719 504.035156 393.105469 504.398438 391.308594 504.453125 C 388.117188 504.554688 385.683594 503.953125 384.285156 500.941406 C 383 498.171875 384.132812 495.078125 387.433594 493.546875 C 389.78125 492.457031 391.851562 492.488281 394.058594 494.0625 L 392.039062 497.246094 C 390.878906 496.40625 389.984375 496.277344 388.929688 496.765625 C 387.84375 497.269531 387.476562 498.273438 387.894531 499.171875 C 388.410156 500.28125 389.304688 500.410156 391.207031 500.359375 C 395.1875 500.242188 398.222656 500.191406 399.921875 503.855469 C 401.46875 507.179688 399.699219 510.214844 396.1875 511.847656 Z M 385.089844 510.230469 C 386.867188 514.058594 385.453125 517.175781 382.175781 518.695312 C 379.21875 520.070312 376.921875 519.761719 375.140625 518.199219 L 375.109375 518.214844 L 375.097656 518.21875 L 375.089844 518.222656 L 377.117188 514.726562 C 378.175781 515.484375 379.039062 515.972656 380.304688 515.382812 C 381.519531 514.820312 381.992188 513.851562 381.132812 512.003906 L 375.132812 499.082031 L 379.0625 497.253906 Z M 367.480469 528.929688 L 406.804688 510.664062 L 388.542969 471.339844 L 349.214844 489.601562 Z M 367.480469 528.929688 " fill-opacity="1" fill-rule="evenodd"/></g></g></g></g><g clip-path="url(#3f598314f8)"><g clip-path="url(#2413c33c35)"><g clip-path="url(#7269ce447d)"><g clip-path="url(#c323ec01bd)"><path fill="#000000" d="M 232.5 453.984375 C 229.390625 451.832031 228.40625 448.957031 228.765625 446.335938 L 232.585938 446.644531 C 232.492188 448.316406 232.832031 449.820312 234.484375 450.964844 C 235.871094 451.925781 237.238281 451.84375 237.898438 450.886719 C 238.894531 449.445312 237.363281 447.554688 236.410156 446.035156 C 234.703125 443.332031 233.992188 440.929688 235.882812 438.199219 C 237.621094 435.6875 240.859375 435.097656 243.851562 437.167969 C 245.980469 438.640625 247 440.445312 246.761719 443.144531 L 242.992188 443.015625 C 243.132812 441.589844 242.789062 440.75 241.832031 440.089844 C 240.851562 439.410156 239.796875 439.601562 239.234375 440.414062 C 238.539062 441.417969 238.878906 442.257812 239.886719 443.875 C 242.003906 447.246094 243.582031 449.839844 241.285156 453.15625 C 239.195312 456.175781 235.683594 456.1875 232.5 453.984375 Z M 228.28125 443.59375 C 225.878906 447.0625 222.46875 447.417969 219.503906 445.367188 C 216.820312 443.511719 215.925781 441.375 216.367188 439.042969 L 216.339844 439.023438 L 216.328125 439.015625 L 216.320312 439.011719 L 220.367188 438.992188 C 220.246094 440.289062 220.261719 441.277344 221.410156 442.074219 C 222.511719 442.835938 223.585938 442.753906 224.746094 441.078125 L 232.855469 429.359375 L 236.421875 431.828125 Z M 203.238281 437.867188 L 238.894531 462.542969 L 263.570312 426.886719 L 227.914062 402.214844 Z M 203.238281 437.867188 " fill-opacity="1" fill-rule="evenodd"/></g></g></g></g><g clip-path="url(#b0bfc25aa6)"><g clip-path="url(#1ffdaacb7b)"><g clip-path="url(#fb6cb825ac)"><g clip-path="url(#b6f90719f6)"><path fill="#000000" d="M 568.796875 359.347656 C 565.59375 361.359375 562.5625 361.128906 560.300781 359.761719 L 562.089844 356.375 C 563.585938 357.121094 565.105469 357.402344 566.808594 356.335938 C 568.234375 355.441406 568.699219 354.152344 568.082031 353.167969 C 567.152344 351.683594 564.808594 352.34375 563.035156 352.621094 C 559.878906 353.121094 557.390625 352.828125 555.628906 350.015625 C 554.007812 347.425781 554.742188 344.21875 557.828125 342.285156 C 560.019531 340.910156 562.078125 340.683594 564.464844 341.96875 L 562.859375 345.378906 C 561.601562 344.691406 560.699219 344.675781 559.714844 345.292969 C 558.699219 345.925781 558.460938 346.96875 558.988281 347.808594 C 559.636719 348.84375 560.539062 348.859375 562.421875 348.574219 C 566.359375 347.957031 569.359375 347.53125 571.503906 350.953125 C 573.453125 354.0625 572.078125 357.292969 568.796875 359.347656 Z M 557.585938 359.128906 C 559.828125 362.703125 558.808594 365.976562 555.75 367.894531 C 552.988281 369.625 550.671875 369.605469 548.707031 368.277344 L 548.675781 368.296875 L 548.664062 368.304688 L 548.65625 368.308594 L 550.234375 364.585938 C 551.378906 365.207031 552.296875 365.582031 553.476562 364.839844 C 554.613281 364.128906 554.960938 363.109375 553.882812 361.382812 L 546.3125 349.308594 L 549.988281 347.007812 Z M 542.445312 379.878906 L 579.183594 356.851562 L 556.15625 320.109375 L 519.417969 343.140625 Z M 542.445312 379.878906 " fill-opacity="1" fill-rule="evenodd"/></g></g></g></g><g clip-path="url(#84c07e9b0a)"><g clip-path="url(#810b7fa87f)"><g clip-path="url(#0793eac71b)"><g clip-path="url(#86f90a54c0)"><path fill="#000000" d="M 279.675781 98.695312 C 276.351562 100.5 273.34375 100.078125 271.171875 98.574219 L 273.167969 95.304688 C 274.617188 96.140625 276.113281 96.523438 277.878906 95.5625 C 279.363281 94.761719 279.90625 93.503906 279.351562 92.480469 C 278.519531 90.941406 276.136719 91.453125 274.351562 91.617188 C 271.167969 91.921875 268.703125 91.46875 267.121094 88.550781 C 265.664062 85.867188 266.601562 82.710938 269.800781 80.972656 C 272.078125 79.742188 274.148438 79.644531 276.445312 81.078125 L 274.628906 84.382812 C 273.417969 83.613281 272.519531 83.539062 271.496094 84.09375 C 270.445312 84.664062 270.140625 85.691406 270.613281 86.558594 C 271.195312 87.636719 272.097656 87.707031 273.992188 87.542969 C 277.960938 87.175781 280.984375 86.9375 282.90625 90.488281 C 284.65625 93.710938 283.082031 96.851562 279.675781 98.695312 Z M 268.5 97.769531 C 270.515625 101.480469 269.292969 104.679688 266.121094 106.402344 C 263.253906 107.957031 260.941406 107.792969 259.0625 106.34375 L 259.035156 106.359375 L 259.023438 106.367188 L 259.015625 106.371094 L 260.824219 102.753906 C 261.925781 103.445312 262.816406 103.878906 264.042969 103.210938 C 265.222656 102.574219 265.632812 101.578125 264.664062 99.789062 L 257.867188 87.261719 L 261.679688 85.195312 Z M 252.085938 117.527344 L 290.203125 96.855469 L 269.527344 58.738281 L 231.414062 79.414062 Z M 252.085938 117.527344 " fill-opacity="1" fill-rule="evenodd"/></g></g></g></g><g clip-path="url(#43bbde3966)"><g clip-path="url(#b5cad5a5da)"><g clip-path="url(#2c1697452a)"><g clip-path="url(#16ab9e68dd)"><path fill="#000000" d="M 599.0625 236.59375 C 595.621094 238.164062 592.648438 237.542969 590.582031 235.894531 L 592.800781 232.765625 C 594.1875 233.699219 595.652344 234.179688 597.480469 233.34375 C 599.015625 232.644531 599.644531 231.429688 599.160156 230.371094 C 598.433594 228.777344 596.019531 229.125 594.226562 229.167969 C 591.03125 229.253906 588.605469 228.636719 587.222656 225.617188 C 585.953125 222.839844 587.101562 219.753906 590.414062 218.242188 C 592.765625 217.164062 594.839844 217.207031 597.035156 218.796875 L 594.996094 221.96875 C 593.84375 221.121094 592.949219 220.984375 591.890625 221.46875 C 590.804688 221.964844 590.429688 222.96875 590.84375 223.867188 C 591.351562 224.980469 592.242188 225.117188 594.148438 225.078125 C 598.128906 224.980469 601.164062 224.949219 602.84375 228.621094 C 604.367188 231.957031 602.582031 234.980469 599.0625 236.59375 Z M 587.972656 234.910156 C 589.730469 238.746094 588.292969 241.859375 585.011719 243.359375 C 582.046875 244.714844 579.75 244.394531 577.976562 242.820312 L 577.945312 242.835938 L 577.933594 242.839844 L 577.925781 242.84375 L 579.976562 239.359375 C 581.027344 240.125 581.886719 240.617188 583.15625 240.035156 C 584.375 239.476562 584.855469 238.511719 584.007812 236.660156 L 578.082031 223.703125 L 582.023438 221.898438 Z M 570.253906 253.503906 L 609.6875 235.46875 L 591.652344 196.039062 L 552.222656 214.074219 Z M 570.253906 253.503906 " fill-opacity="1" fill-rule="evenodd"/></g></g></g></g><g clip-path="url(#ba6f7f752d)"><g clip-path="url(#d71909abca)"><g clip-path="url(#c6ec746fe7)"><g clip-path="url(#284ddc263e)"><path fill="#000000" d="M 596.277344 100.039062 C 593.125 97.710938 592.199219 94.699219 592.65625 92 L 596.605469 92.441406 C 596.457031 94.167969 596.753906 95.738281 598.429688 96.976562 C 599.835938 98.015625 601.253906 97.976562 601.972656 97.007812 C 603.050781 95.546875 601.523438 93.535156 600.585938 91.933594 C 598.90625 89.078125 598.246094 86.566406 600.292969 83.800781 C 602.171875 81.253906 605.546875 80.75 608.582031 82.992188 C 610.738281 84.585938 611.738281 86.484375 611.402344 89.273438 L 607.503906 89.019531 C 607.691406 87.542969 607.363281 86.667969 606.394531 85.949219 C 605.398438 85.214844 604.300781 85.378906 603.691406 86.203125 C 602.941406 87.222656 603.265625 88.101562 604.257812 89.808594 C 606.339844 93.371094 607.890625 96.105469 605.402344 99.46875 C 603.144531 102.527344 599.503906 102.425781 596.277344 100.039062 Z M 592.242188 89.140625 C 589.640625 92.660156 586.101562 92.917969 583.09375 90.691406 C 580.375 88.683594 579.515625 86.441406 580.050781 84.042969 L 580.023438 84.023438 L 580.011719 84.015625 L 580.003906 84.007812 L 584.195312 84.121094 C 584.027344 85.457031 584.011719 86.484375 585.175781 87.34375 C 586.292969 88.167969 587.410156 88.121094 588.664062 86.421875 L 597.441406 74.546875 L 601.054688 77.21875 Z M 566.488281 82.402344 L 602.625 109.113281 L 629.335938 72.976562 L 593.199219 46.265625 Z M 566.488281 82.402344 " fill-opacity="1" fill-rule="evenodd"/></g></g></g></g><g clip-path="url(#fb321eb573)"><g clip-path="url(#d22f371fa7)"><g clip-path="url(#ef39e3da15)"><g clip-path="url(#fc7663b9f8)"><path fill="#000000" d="M 420.699219 359.140625 C 417.121094 360.367188 414.222656 359.453125 412.332031 357.605469 L 414.847656 354.714844 C 416.136719 355.78125 417.546875 356.40625 419.449219 355.753906 C 421.042969 355.207031 421.789062 354.0625 421.414062 352.960938 C 420.847656 351.304688 418.414062 351.410156 416.625 351.277344 C 413.4375 351.046875 411.082031 350.191406 410.007812 347.050781 C 409.019531 344.160156 410.46875 341.203125 413.910156 340.023438 C 416.359375 339.1875 418.417969 339.4375 420.445312 341.230469 L 418.105469 344.1875 C 417.039062 343.230469 416.164062 343.007812 415.0625 343.382812 C 413.929688 343.769531 413.460938 344.730469 413.78125 345.667969 C 414.175781 346.824219 415.050781 347.046875 416.949219 347.195312 C 420.921875 347.496094 423.945312 347.765625 425.25 351.585938 C 426.4375 355.054688 424.363281 357.886719 420.699219 359.140625 Z M 409.832031 356.371094 C 411.199219 360.363281 409.464844 363.316406 406.046875 364.484375 C 402.964844 365.539062 400.710938 364.992188 399.101562 363.253906 L 399.070312 363.261719 L 399.054688 363.269531 L 399.046875 363.269531 L 401.433594 360.003906 C 402.40625 360.871094 403.210938 361.445312 404.53125 360.992188 C 405.800781 360.558594 406.371094 359.648438 405.710938 357.71875 L 401.097656 344.238281 L 405.199219 342.832031 Z M 390.359375 373.117188 L 431.382812 359.078125 L 417.34375 318.054688 L 376.320312 332.09375 Z M 390.359375 373.117188 " fill-opacity="1" fill-rule="evenodd"/></g></g></g></g><g clip-path="url(#cb357519a9)"><g clip-path="url(#eacef0ed25)"><g clip-path="url(#7c28182ac0)"><g clip-path="url(#6926342fed)"><path fill="#000000" d="M 104.367188 502.953125 C 100.789062 504.179688 97.890625 503.265625 96 501.417969 L 98.515625 498.527344 C 99.804688 499.59375 101.214844 500.21875 103.117188 499.566406 C 104.710938 499.019531 105.457031 497.875 105.082031 496.773438 C 104.515625 495.113281 102.082031 495.222656 100.292969 495.089844 C 97.105469 494.855469 94.75 494 93.675781 490.863281 C 92.6875 487.972656 94.136719 485.015625 97.578125 483.835938 C 100.027344 483 102.082031 483.246094 104.113281 485.042969 L 101.773438 488 C 100.707031 487.042969 99.828125 486.820312 98.726562 487.195312 C 97.597656 487.582031 97.128906 488.542969 97.449219 489.480469 C 97.84375 490.636719 98.71875 490.859375 100.617188 491.007812 C 104.589844 491.308594 107.613281 491.578125 108.917969 495.398438 C 110.105469 498.867188 108.03125 501.699219 104.367188 502.953125 Z M 93.5 500.179688 C 94.867188 504.175781 93.128906 507.128906 89.714844 508.296875 C 86.628906 509.351562 84.378906 508.804688 82.769531 507.066406 L 82.738281 507.074219 L 82.722656 507.082031 L 82.714844 507.082031 L 85.101562 503.816406 C 86.074219 504.683594 86.878906 505.257812 88.199219 504.804688 C 89.46875 504.371094 90.039062 503.457031 89.378906 501.53125 L 84.765625 488.050781 L 88.867188 486.644531 Z M 74.027344 516.929688 L 115.050781 502.890625 L 101.011719 461.867188 L 59.988281 475.90625 Z M 74.027344 516.929688 " fill-opacity="1" fill-rule="evenodd"/></g></g></g></g><g clip-path="url(#6a9e2a38ae)"><g clip-path="url(#ba5608c2a4)"><g clip-path="url(#e2cb455d96)"><g clip-path="url(#9b31b43f44)"><path fill="#000000" d="M 104.367188 363.597656 C 100.789062 364.820312 97.890625 363.90625 96 362.0625 L 98.515625 359.167969 C 99.804688 360.234375 101.214844 360.859375 103.117188 360.207031 C 104.710938 359.664062 105.457031 358.515625 105.082031 357.414062 C 104.515625 355.757812 102.082031 355.863281 100.292969 355.730469 C 97.105469 355.5 94.75 354.644531 93.675781 351.503906 C 92.6875 348.613281 94.136719 345.65625 97.578125 344.476562 C 100.027344 343.640625 102.082031 343.890625 104.113281 345.6875 L 101.773438 348.640625 C 100.707031 347.683594 99.828125 347.460938 98.726562 347.835938 C 97.597656 348.222656 97.128906 349.183594 97.449219 350.121094 C 97.84375 351.277344 98.71875 351.5 100.617188 351.652344 C 104.589844 351.949219 107.613281 352.21875 108.917969 356.039062 C 110.105469 359.507812 108.03125 362.34375 104.367188 363.597656 Z M 93.5 360.824219 C 94.867188 364.816406 93.128906 367.769531 89.714844 368.9375 C 86.628906 369.996094 84.378906 369.445312 82.769531 367.707031 L 82.738281 367.71875 L 82.722656 367.722656 L 82.714844 367.726562 L 85.101562 364.460938 C 86.074219 365.324219 86.878906 365.898438 88.199219 365.445312 C 89.46875 365.011719 90.039062 364.101562 89.378906 362.175781 L 84.765625 348.691406 L 88.867188 347.289062 Z M 74.027344 377.574219 L 115.050781 363.53125 L 101.011719 322.507812 L 59.988281 336.550781 Z M 74.027344 377.574219 " fill-opacity="1" fill-rule="evenodd"/></g></g></g></g><g clip-path="url(#092bc85cbe)"><g clip-path="url(#1081db7229)"><g clip-path="url(#2b3722a347)"><g clip-path="url(#823e82a235)"><path fill="#000000" d="M 622.730469 516.097656 C 619.152344 517.324219 616.253906 516.410156 614.359375 514.5625 L 616.878906 511.671875 C 618.164062 512.738281 619.578125 513.363281 621.480469 512.710938 C 623.074219 512.164062 623.820312 511.015625 623.445312 509.914062 C 622.875 508.257812 620.445312 508.367188 618.652344 508.234375 C 615.46875 508 613.113281 507.144531 612.039062 504.007812 C 611.046875 501.117188 612.496094 498.160156 615.941406 496.980469 C 618.390625 496.140625 620.445312 496.390625 622.476562 498.1875 L 620.132812 501.144531 C 619.070312 500.183594 618.191406 499.960938 617.089844 500.339844 C 615.960938 500.726562 615.488281 501.6875 615.808594 502.625 C 616.207031 503.78125 617.082031 504.003906 618.980469 504.152344 C 622.953125 504.453125 625.972656 504.722656 627.28125 508.542969 C 628.46875 512.011719 626.394531 514.84375 622.730469 516.097656 Z M 611.863281 513.324219 C 613.230469 517.320312 611.492188 520.273438 608.078125 521.441406 C 604.992188 522.496094 602.742188 521.949219 601.128906 520.210938 L 601.101562 520.21875 L 601.085938 520.222656 L 601.078125 520.226562 L 603.464844 516.960938 C 604.433594 517.828125 605.242188 518.402344 606.5625 517.949219 C 607.832031 517.515625 608.402344 516.601562 607.742188 514.675781 L 603.128906 501.195312 L 607.230469 499.789062 Z M 592.390625 530.074219 L 633.414062 516.035156 L 619.371094 475.011719 L 578.347656 489.050781 Z M 592.390625 530.074219 " fill-opacity="1" fill-rule="evenodd"/></g></g></g></g></svg>