<!DOCTYPE svg PUBLIC "-//W3C//DTD SVG 1.1//EN" "http://www.w3.org/Graphics/SVG/1.1/DTD/svg11.dtd">
<!-- Uploaded to: SVG Repo, www.svgrepo.com, Transformed by: SVG Repo Mixer Tools -->
<svg fill="#FDA909" width="156px" height="156px" viewBox="-8 -8 48.00 48.00" xmlns="http://www.w3.org/2000/svg">
<g id="SVGRepo_bgCarrier" stroke-width="0" transform="translate(1.4399999999999995,1.4399999999999995), scale(0.91)">
<path transform="translate(-8, -8), scale(3)" fill="#000" d="M9.166.33a2.25 2.25 0 00-2.332 0l-5.25 3.182A2.25 2.25 0 00.5 5.436v5.128a2.25 2.25 0 001.084 1.924l5.25 3.182a2.25 2.25 0 002.332 0l5.25-3.182a2.25 2.25 0 001.084-1.924V5.436a2.25 2.25 0 00-1.084-1.924L9.166.33z" strokewidth="0"/>
</g>
<g id="SVGRepo_tracerCarrier" stroke-linecap="round" stroke-linejoin="round" stroke="#CCCCCC" stroke-width="0.192"/>
<g id="SVGRepo_iconCarrier">
<path d="M6.32 5.5l1.759 19.774 7.893 2.226 7.948-2.226L25.68 5.5H6.32zm15.537 6.449H12.59l.207 2.488h8.854l-.687 7.479-4.937 1.361v.014h-.055l-4.978-1.375-.303-3.821h2.406l.179 1.925 2.695.728 2.708-.728.303-3.136h-8.415l-.645-7.341h12.155l-.22 2.406z"/>
</g>
</svg>