<!DOCTYPE svg PUBLIC "-//W3C//DTD SVG 1.1//EN" "http://www.w3.org/Graphics/SVG/1.1/DTD/svg11.dtd">
<!-- Uploaded to: SVG Repo, www.svgrepo.com, Transformed by: SVG Repo Mixer Tools -->
<svg fill="#fff" width="156px" height="156px" viewBox="-11.76 -11.76 47.52 47.52" role="img" xmlns="http://www.w3.org/2000/svg" stroke="#fff" stroke-width="0.00024000000000000003">
<g id="SVGRepo_bgCarrier" stroke-width="0">
<path transform="translate(-11.76, -11.76), scale(2.97)" fill="#000" d="M9.166.33a2.25 2.25 0 00-2.332 0l-5.25 3.182A2.25 2.25 0 00.5 5.436v5.128a2.25 2.25 0 001.084 1.924l5.25 3.182a2.25 2.25 0 002.332 0l5.25-3.182a2.25 2.25 0 001.084-1.924V5.436a2.25 2.25 0 00-1.084-1.924L9.166.33z" strokewidth="0"/>
</g>
<g id="SVGRepo_tracerCarrier" stroke-linecap="round" stroke-linejoin="round"/>
<g id="SVGRepo_iconCarrier">
<path d="M12 0A12 12 0 0 0 0 12a12 12 0 0 0 12 12 12 12 0 0 0 12-12A12 12 0 0 0 12 0zM9.426 7.12a5.55 5.55 0 0 1 1.985.38v1.181a4.5 4.5 0 0 0-2.25-.566 3.439 3.439 0 0 0-2.625 1.087 4.099 4.099 0 0 0-1.012 2.906 3.9 3.9 0 0 0 .945 2.754 3.217 3.217 0 0 0 2.482 1.023 4.657 4.657 0 0 0 2.464-.634l-.004 1.08a5.543 5.543 0 0 1-2.625.555 4.211 4.211 0 0 1-3.228-1.297 4.793 4.793 0 0 1-1.212-3.409 5.021 5.021 0 0 1 1.365-3.663 4.631 4.631 0 0 1 3.473-1.392 5.55 5.55 0 0 1 .12-.004 5.55 5.55 0 0 1 .122 0zm5.863.155h.836l-.555 2.652h1.661l.567-2.652h.81l-.555 2.652 1.732-.004-.15.697H17.91l-.412 1.98h1.852l-.176.698h-1.816l-.58 2.625h-.83l.567-2.625h-1.65l-.555 2.625h-.81l.555-2.625h-1.74l.131-.698h1.748l.401-1.976h-1.826l.138-.697h1.826zm.142 3.345L15 12.6h1.673l.423-1.98z"/>
</g>
</svg>